<svg width="66" height="97" viewBox="0 0 66 97" fill="none" xmlns="http://www.w3.org/2000/svg">
<path fill-rule="evenodd" clip-rule="evenodd" d="M81.0853 0.563831C80.9462 0.402754 80.6357 0.261162 80.3673 0.236434C80.0632 0.208414 79.563 0.344731 79.3217 0.521386C78.9162 0.818349 78.7651 1.24034 78.9502 1.55925C79.083 1.78828 79.3514 1.95261 79.6701 2.00011C79.8892 2.03276 79.9845 2.02663 80.2488 1.96285C80.7721 1.83653 81.1332 1.54574 81.2257 1.17618C81.2859 0.935428 81.2425 0.745895 81.0853 0.563831ZM84.801 15.6752C84.5472 15.3791 84.0951 15.2823 83.5658 15.4108C83.2004 15.4996 83.052 15.5837 82.8054 15.8419C82.5884 16.0692 82.5272 16.4134 82.6624 16.6465C82.8758 17.0144 83.4165 17.1842 83.9652 17.0557C84.4536 16.9413 84.8425 16.6201 84.9336 16.2559C84.9938 16.0155 84.9579 15.8582 84.801 15.6752ZM88.5119 30.7531C88.3427 30.5439 87.921 30.4068 87.5496 30.4402C86.8855 30.5001 86.3826 30.8805 86.308 31.3793C86.249 31.7739 86.5756 32.1154 87.0846 32.1912C87.3138 32.2254 87.406 32.2197 87.6727 32.1554C88.196 32.029 88.5572 31.7382 88.6496 31.3687C88.7087 31.1326 88.6666 30.9445 88.5119 30.7531ZM92.2249 45.8677C91.9714 45.5719 91.5201 45.4752 90.988 45.6027C90.7141 45.6684 90.6283 45.7046 90.466 45.8235C90.0597 46.1211 89.9066 46.5365 90.0894 46.8453C90.3079 47.2142 90.8458 47.3805 91.3943 47.2485C91.8791 47.1319 92.2672 46.8095 92.3576 46.4484C92.4177 46.208 92.3818 46.0507 92.2249 45.8677ZM95.9147 60.9365C95.6208 60.6128 94.9924 60.5325 94.4678 60.7517C94.0439 60.9288 93.785 61.2173 93.732 61.5718C93.672 61.9731 94.0116 62.3148 94.5445 62.3892C95.2162 62.483 95.9412 62.0904 96.0736 61.5612C96.1358 61.3128 96.0888 61.1282 95.9147 60.9365ZM99.6519 76.0584C99.4857 75.8529 99.0505 75.7083 98.6962 75.7409C98.3337 75.7743 97.9999 75.9113 97.7657 76.1229C97.5473 76.3202 97.4888 76.4223 97.4489 76.6753C97.3696 77.1793 97.9723 77.5694 98.6864 77.4762C99.1793 77.412 99.6845 77.0289 99.78 76.6471C99.8405 76.4052 99.8067 76.2499 99.6519 76.0584ZM77.3813 9.50209C77.1267 9.21456 76.5727 9.07781 76.1133 9.18914C75.7207 9.28432 75.2834 9.62686 75.1369 9.954C75.0721 10.0986 75.1966 10.5568 75.3297 10.6636C75.533 10.8267 75.771 10.9103 76.0493 10.9162C76.6901 10.9298 77.2455 10.6417 77.4431 10.1931C77.5487 9.95333 77.5226 9.66162 77.3813 9.50209ZM81.0893 24.5818C80.8346 24.2943 80.2806 24.1576 79.8213 24.2689C79.5459 24.3356 79.2009 24.5484 79.0372 24.7524C78.8138 25.0309 78.7958 25.0984 78.8662 25.392C78.941 25.7039 79.0758 25.8399 79.4178 25.9482C79.8939 26.099 80.5466 25.9436 80.9442 25.5847C81.2307 25.3261 81.3033 24.8236 81.0893 24.5818ZM84.8053 39.6946C84.5507 39.4071 83.9966 39.2703 83.5373 39.3817C83.1506 39.4754 82.7012 39.8242 82.5676 40.1345C82.5117 40.2644 82.5616 40.5998 82.6576 40.7385C82.8676 41.042 83.4246 41.1921 83.907 41.0752C84.1894 41.0068 84.4741 40.8655 84.6506 40.7062C84.944 40.4413 85.021 39.9382 84.8053 39.6946ZM88.5101 54.7711C88.2926 54.5239 87.8142 54.3872 87.3697 54.4453C86.9426 54.501 86.4877 54.8112 86.2995 55.1748C86.192 55.3827 86.2928 55.799 86.4899 55.9607C87.078 56.443 88.3026 56.1447 88.5906 55.449C88.6859 55.2187 88.6519 54.9322 88.5101 54.7711ZM92.2293 69.8871C91.9746 69.5996 91.4206 69.4628 90.9613 69.5742C90.6859 69.6409 90.3409 69.8537 90.1773 70.0577C89.9538 70.3361 89.9358 70.4037 90.0062 70.6973C90.081 71.0092 90.2159 71.1452 90.5578 71.2535C91.0287 71.4026 91.6868 71.2487 92.0745 70.8987C92.368 70.6338 92.445 70.1307 92.2293 69.8871ZM69.8764 3.28182C69.5778 2.95278 69.0111 2.86792 68.4283 3.06505C68.1123 3.17192 67.8537 3.38149 67.71 3.64717C67.4888 4.05599 67.6916 4.49862 68.1766 4.66522C68.4704 4.76616 68.6716 4.76938 69.0439 4.67915C69.5122 4.56563 69.8445 4.31803 69.9827 3.97956C70.0633 3.78241 70.0093 3.42831 69.8764 3.28182ZM73.5844 18.389C73.3623 18.1345 72.9628 18.0197 72.5261 18.0849C72.0031 18.163 71.6222 18.3975 71.4245 18.7628C71.3344 18.9292 71.3206 19.0085 71.3503 19.1904C71.381 19.3787 71.4117 19.4351 71.5471 19.5515C71.8168 19.7835 72.3499 19.8913 72.7491 19.7945C73.2045 19.6841 73.7016 19.2426 73.7342 18.9195C73.7561 18.7025 73.7073 18.5299 73.5844 18.389ZM77.3004 33.4743C76.9898 33.132 76.3579 33.0527 75.7909 33.2847C74.8924 33.6525 74.7806 34.5761 75.6006 34.8577C75.8944 34.9587 76.0956 34.9619 76.4678 34.8717C76.9362 34.7581 77.2684 34.5105 77.4067 34.1721C77.4873 33.9749 77.4333 33.6208 77.3004 33.4743ZM81.0112 48.5849C80.8003 48.3435 80.4673 48.2356 80.0394 48.27C79.5035 48.3132 79.0574 48.5691 78.85 48.9524C78.6993 49.2308 78.7396 49.5448 78.9494 49.7273C79.2324 49.9733 79.7508 50.0894 80.143 49.9943C80.6281 49.8767 81.1245 49.4452 81.1582 49.112C81.1799 48.8964 81.1314 48.7225 81.0112 48.5849ZM84.7333 63.6861C84.5314 63.4332 84.1832 63.3192 83.7254 63.3561C83.2058 63.3981 82.7613 63.6564 82.556 64.0357C82.4625 64.2084 82.4514 64.279 82.4859 64.4801C82.521 64.6845 82.5501 64.739 82.6872 64.8569C82.9985 65.1246 83.5816 65.21 84.022 65.0523C84.3921 64.9198 84.7165 64.6442 84.8301 64.3657C84.9083 64.1742 84.8617 63.8469 84.7333 63.6861ZM88.4376 78.7803C88.1364 78.436 87.5019 78.3563 86.9291 78.5908C86.6161 78.7189 86.4098 78.8939 86.2724 79.1478C86.1233 79.4232 86.1645 79.7381 86.3734 79.9198C86.6632 80.1719 87.1751 80.2818 87.5904 80.1811C88.0549 80.0686 88.5491 79.6317 88.5821 79.3045C88.6038 79.0901 88.5555 78.9151 88.4376 78.7803ZM66.0044 12.1389C65.8035 11.9639 65.5604 11.8843 65.2163 11.881C64.5837 11.8749 63.9445 12.3144 63.8709 12.8061C63.7632 13.5264 64.7819 13.9 65.6444 13.4565C66.2851 13.127 66.4491 12.5265 66.0044 12.1389ZM69.753 27.2513C69.4616 26.9806 68.8878 26.8859 68.4536 27.0369C68.1786 27.1326 67.8592 27.3515 67.7289 27.5335C67.6122 27.6965 67.5354 27.9972 67.5723 28.147C67.6395 28.4204 68.0224 28.6877 68.41 28.7318C68.6328 28.7571 69.0349 28.684 69.2896 28.572C69.936 28.2875 70.1652 27.6342 69.753 27.2513ZM73.4284 42.3315C73.1566 42.0946 72.7091 42.0115 72.2655 42.1154C72.0359 42.1692 71.6073 42.4343 71.4618 42.6126C71.3459 42.7544 71.2504 43.1058 71.2872 43.2552C71.3336 43.4438 71.5404 43.6479 71.786 43.7473C72.4554 44.0181 73.372 43.6865 73.624 43.0824C73.7459 42.79 73.6846 42.5548 73.4284 42.3315ZM77.177 57.4438C76.8855 57.1731 76.3118 57.0784 75.8776 57.2294C75.414 57.3907 75.0743 57.7167 75.0087 58.0633C74.9648 58.2954 74.9904 58.4002 75.1336 58.5747C75.3748 58.8686 75.7758 58.9824 76.2671 58.8962C76.6355 58.8316 76.9051 58.7045 77.1126 58.4974C77.4521 58.1588 77.4786 57.724 77.177 57.4438ZM80.893 72.5566C80.6016 72.2858 80.0278 72.1912 79.5936 72.3422C79.3449 72.4287 79.0237 72.6393 78.886 72.8061C78.7701 72.9465 78.6743 73.2979 78.7111 73.4477C78.7795 73.7256 79.1596 73.9926 79.55 74.037C79.7728 74.0624 80.1749 73.9893 80.4296 73.8773C81.0735 73.5939 81.3036 72.938 80.893 72.5566ZM58.5543 5.94504C58.3796 5.80072 58.2304 5.73799 57.9605 5.69535C57.7722 5.66556 57.6765 5.67374 57.3804 5.74478C56.9868 5.83916 56.82 5.92998 56.5993 6.16986C56.4381 6.34509 56.3841 6.47083 56.372 6.69907C56.3522 7.0738 56.6565 7.36606 57.152 7.44802C57.3954 7.48829 57.4718 7.48413 57.7557 7.41532C58.1496 7.31985 58.3817 7.18328 58.5811 6.92962C58.7683 6.69152 58.8048 6.54149 58.7398 6.27705C58.6994 6.11269 58.6499 6.024 58.5543 5.94504ZM62.2703 21.0578C62.0949 20.9128 61.9464 20.8507 61.6714 20.8073C61.4768 20.7765 61.3861 20.7842 61.0911 20.8561C60.7942 20.9286 60.7081 20.9648 60.5197 21.0962C59.9728 21.4777 59.9397 22.1125 60.4518 22.4002C60.5528 22.457 60.761 22.5201 60.9144 22.5404C61.1474 22.5714 61.2442 22.5648 61.5038 22.5006C61.7772 22.4329 61.8434 22.4016 62.0565 22.2392C62.2299 22.1071 62.3291 21.9943 62.4064 21.8416C62.5007 21.655 62.5071 21.5998 62.4574 21.397C62.4153 21.2251 62.3671 21.1378 62.2703 21.0578ZM65.9549 36.122C65.6021 35.8266 64.9939 35.7972 64.4592 36.0497C63.8851 36.3208 63.6432 36.8223 63.8852 37.2395C64.0106 37.4556 64.2738 37.6056 64.6052 37.6501C64.9349 37.6943 65.4087 37.5905 65.6861 37.4131C65.8956 37.2791 66.1257 37.0035 66.1808 36.8205C66.2427 36.6147 66.1311 36.2696 65.9549 36.122ZM69.6943 51.2503C69.5196 51.106 69.3704 51.0432 69.1005 51.0006C68.7973 50.9527 68.2552 51.075 67.996 51.2499C67.2186 51.7742 67.4018 52.6119 68.3196 52.7292C68.7995 52.7906 69.1763 52.6846 69.5516 52.3827C69.8446 52.147 69.9533 51.8853 69.8812 51.5896C69.8392 51.4174 69.7912 51.3304 69.6943 51.2503ZM73.3788 66.3145C73.0261 66.0191 72.4179 65.9897 71.8832 66.2422C71.3091 66.5133 71.0672 67.0148 71.3092 67.4321C71.5451 67.8386 72.2811 67.985 72.8641 67.7414C73.1535 67.6205 73.4457 67.3616 73.5566 67.128C73.6398 66.9526 73.6443 66.8934 73.5905 66.6828C73.5419 66.4922 73.4962 66.4128 73.3788 66.3145ZM77.1158 81.4439C76.9436 81.2989 76.7951 81.2359 76.5245 81.1931C76.22 81.145 75.6792 81.2675 75.4176 81.4439C75.1961 81.5933 74.9858 81.8616 74.9475 82.0436C74.908 82.2315 74.9871 82.5229 75.1118 82.649C75.4215 82.9622 76.1072 83.0383 76.6004 82.8141C76.8917 82.6817 77.1607 82.4401 77.2664 82.2158C77.3474 82.0439 77.3529 81.9792 77.3032 81.7831C77.2608 81.616 77.2093 81.5226 77.1158 81.4439ZM54.8514 14.9463C54.76 14.8018 54.4182 14.6433 54.1418 14.6172C53.9649 14.6006 53.8185 14.6141 53.597 14.6675C52.9274 14.8291 52.5083 15.3025 52.6155 15.7764C52.7444 16.3462 53.6306 16.5562 54.3867 16.1962C54.6286 16.081 54.9595 15.7033 54.9849 15.5135C55.006 15.3547 54.9447 15.0938 54.8514 14.9463ZM58.5714 30.0424C58.4721 29.8933 58.1714 29.7473 57.8848 29.709C57.5086 29.6587 57.1018 29.7531 56.7904 29.9629C56.5451 30.1282 56.4415 30.2479 56.3573 30.4634C56.2009 30.8636 56.3662 31.178 56.8287 31.3601C57.135 31.4806 57.3724 31.4935 57.7227 31.4086C58.1519 31.3046 58.536 31.0198 58.6637 30.711C58.7167 30.5827 58.6606 30.1763 58.5714 30.0424ZM62.2848 45.1558C62.1892 45.0036 61.8748 44.8498 61.5929 44.8173C61.0952 44.76 60.4801 44.9842 60.2143 45.32C59.9504 45.6532 59.9613 46.0602 60.2406 46.3005C60.6286 46.6344 61.2764 46.6613 61.8481 46.3672C62.0983 46.2386 62.3826 45.903 62.4089 45.7051C62.4289 45.5554 62.3689 45.2898 62.2848 45.1558ZM65.9609 60.2062C65.8125 60.0385 65.6045 59.9419 65.3053 59.9015C64.3165 59.7678 63.3868 60.6417 63.8467 61.2727C63.9994 61.4822 64.4404 61.6749 64.7375 61.662C65.3503 61.6353 65.9158 61.3192 66.0855 60.9086C66.1545 60.7418 66.0842 60.3454 65.9609 60.2062ZM69.7087 75.3483C69.616 75.2006 69.3136 75.0529 69.0248 75.0143C68.1703 74.9 67.318 75.5264 67.4642 76.1613C67.5211 76.4082 67.7204 76.5934 68.0448 76.7006C68.4118 76.8219 68.8631 76.7701 69.2721 76.5597C69.5222 76.4311 69.8065 76.0955 69.8329 75.8977C69.8529 75.7479 69.7929 75.4823 69.7087 75.3483ZM47.3434 8.72577C47.1507 8.51369 46.7594 8.38525 46.405 8.41785C45.7404 8.479 45.2483 8.83781 45.1685 9.31945C45.1335 9.53076 45.141 9.58579 45.2245 9.72983C45.3639 9.97 45.6126 10.1246 45.9372 10.173C46.4566 10.2504 47.1049 10.0079 47.3584 9.6414C47.588 9.30947 47.5827 8.98936 47.3434 8.72577ZM51.0594 23.8385C50.8668 23.6264 50.4754 23.498 50.121 23.5306C49.4627 23.5912 48.9669 23.9492 48.8855 24.4228C48.8508 24.6247 48.8585 24.6821 48.939 24.8208C49.1562 25.1952 49.6966 25.3639 50.2466 25.2291C50.7332 25.1098 51.1205 24.7887 51.2102 24.4302C51.2721 24.1828 51.2331 24.0299 51.0594 23.8385ZM54.7673 38.9183C54.5277 38.6544 53.9883 38.5374 53.527 38.6492C53.3179 38.6999 52.9871 38.8955 52.8179 39.0685C52.6663 39.2236 52.6278 39.2986 52.5934 39.5059C52.5574 39.7234 52.5646 39.7777 52.6485 39.9223C52.7879 40.1625 53.0365 40.3172 53.3612 40.3655C53.8806 40.4429 54.5289 40.2004 54.7824 39.8339C55.0119 39.502 55.0067 39.1819 54.7673 38.9183ZM58.4834 54.031C58.2907 53.819 57.8994 53.6905 57.545 53.7231C56.8866 53.7837 56.3909 54.1417 56.3094 54.6153C56.2747 54.8172 56.2825 54.8746 56.363 55.0133C56.5802 55.3877 57.1205 55.5564 57.6706 55.4216C58.1572 55.3023 58.5445 54.9812 58.6341 54.6228C58.6961 54.3753 58.6571 54.2224 58.4834 54.031ZM62.1913 69.1108C61.7932 68.6724 60.8519 68.7095 60.3262 69.1845C60.1058 69.3837 60.0473 69.4871 60.0084 69.7471C59.9237 70.3133 60.6294 70.717 61.3819 70.5329C61.8824 70.4103 62.2444 70.1107 62.3463 69.7347C62.4128 69.4893 62.3668 69.3041 62.1913 69.1108ZM65.9073 84.2235C65.716 84.0129 65.3379 83.8887 64.9761 83.9179C64.5254 83.9543 64.2234 84.0939 63.9294 84.4018C63.7151 84.6262 63.6466 85.0004 63.7821 85.2064C63.9721 85.4951 64.1768 85.6094 64.5865 85.6554C65.2146 85.726 65.9328 85.316 66.0581 84.8153C66.1201 84.5678 66.0811 84.4149 65.9073 84.2235ZM43.5883 17.6099C43.2247 17.25 42.4106 17.237 41.8949 17.5828C41.4901 17.8542 41.3299 18.1593 41.4124 18.5019C41.5232 18.9627 42.123 19.2085 42.7627 19.0555C43.2246 18.945 43.5478 18.714 43.7122 18.3769C43.7891 18.2192 43.7931 18.1566 43.7399 17.9453C43.7056 17.8094 43.6374 17.6584 43.5883 17.6099ZM47.3197 32.7109C47.1068 32.4842 46.4948 32.3471 46.1113 32.44C45.818 32.511 45.4805 32.7189 45.3067 32.9356C45.1031 33.1893 45.0602 33.3418 45.1219 33.5926C45.1839 33.8448 45.361 34.0112 45.6791 34.1164C46.3184 34.3277 47.1845 33.9992 47.4244 33.4545C47.4949 33.2944 47.4984 33.2233 47.446 33.0208C47.4115 32.8875 47.3547 32.7481 47.3197 32.7109ZM51.0145 47.8069C50.8441 47.6427 50.5339 47.5292 50.2363 47.5223C49.7588 47.5111 49.3331 47.6897 49.0239 48.0309C48.6232 48.473 48.8063 49.0439 49.4101 49.2352C50.0458 49.4365 50.9034 49.1055 51.1404 48.5672C51.2105 48.408 51.2143 48.3351 51.1631 48.1333C51.1292 47.9998 51.0624 47.853 51.0145 47.8069ZM54.7156 62.8885C54.4331 62.6522 54.0378 62.5598 53.6025 62.6283C53.1455 62.7003 52.6446 63.0871 52.5345 63.4529C52.4742 63.6532 52.5704 63.9666 52.7367 64.1115C53.2997 64.6024 54.4917 64.3581 54.8281 63.683C54.9241 63.4904 54.929 63.4409 54.874 63.2186C54.8343 63.0576 54.7783 62.941 54.7156 62.8885ZM58.4597 78.0162C58.3179 77.8652 58.0312 77.7548 57.7127 77.7286C57.441 77.7062 57.3539 77.7141 57.1492 77.7798C56.8386 77.8797 56.6086 78.0333 56.4301 78.2603C56.2424 78.499 56.2015 78.6523 56.261 78.8943C56.4028 79.471 57.3011 79.6711 58.0306 79.2884C58.2939 79.1503 58.4686 78.9773 58.5644 78.7597C58.6349 78.5997 58.6384 78.5286 58.586 78.326C58.5515 78.1928 58.4947 78.0533 58.4597 78.0162ZM36.1502 11.4633C36.0318 11.3078 35.7031 11.1581 35.4228 11.1319C35.1646 11.1077 34.5887 11.2449 34.3916 11.3776C33.6953 11.846 33.7379 12.6052 34.4741 12.8476C34.7544 12.9399 34.9554 12.942 35.31 12.856C36.1446 12.6537 36.5479 11.9854 36.1502 11.4633ZM39.8649 26.568C39.7249 26.4079 39.4988 26.2961 39.229 26.2535C39.0215 26.2208 38.9396 26.2279 38.6169 26.3064C38.3968 26.3599 38.201 26.4265 38.1387 26.4691C37.5926 26.8421 37.4461 27.3644 37.7911 27.7087C38.0671 27.9842 38.7055 28.0835 39.1585 27.9214C39.883 27.662 40.2337 26.9899 39.8649 26.568ZM43.5801 41.6644C43.2328 41.2129 42.2259 41.2241 41.6719 41.6855C41.3811 41.9278 41.2411 42.3209 41.35 42.5897C41.4617 42.8656 41.8583 43.0943 42.26 43.1143C42.521 43.1274 43.0277 42.9918 43.2296 42.8549C43.7288 42.5165 43.8691 42.04 43.5801 41.6644ZM47.2903 56.7686C47.1719 56.6131 46.8432 56.4633 46.5628 56.4371C46.3277 56.4151 45.7277 56.5501 45.5627 56.662C45.0164 57.0328 44.8692 57.56 45.2169 57.9007C45.5006 58.1788 46.0789 58.2784 46.5343 58.1278C46.9815 57.9798 47.3269 57.67 47.4085 57.3438C47.4659 57.1146 47.4333 56.9565 47.2903 56.7686ZM50.995 71.844C50.8371 71.6363 50.3985 71.4945 50.0185 71.5282C49.4778 71.5762 49.0426 71.8217 48.8428 72.1915C48.6018 72.6373 48.7747 73.0352 49.2902 73.2215C50.3616 73.6087 51.5852 72.62 50.995 71.844ZM54.7142 86.9611C54.5955 86.8052 54.2661 86.6554 53.9869 86.6304C53.7535 86.6096 53.2628 86.7168 53.0234 86.841C52.8112 86.9511 52.5776 87.2168 52.4917 87.4457C52.3092 87.9321 52.7533 88.3721 53.4415 88.3867C53.7661 88.3936 53.8999 88.3647 54.1955 88.2236C54.5115 88.0727 54.7668 87.7991 54.831 87.5424C54.8898 87.3074 54.8582 87.1502 54.7142 86.9611ZM32.3386 20.3593C32.0746 20.1066 31.5447 19.9923 31.1177 20.0958C30.6282 20.2144 30.166 20.6398 30.1396 20.9959C30.1219 21.2354 30.1392 21.2973 30.2748 21.4805C30.5601 21.8659 31.3276 21.936 31.921 21.6308C32.5123 21.3267 32.7125 20.717 32.3386 20.3593ZM36.0296 35.4256C35.7426 35.1591 35.1726 35.0623 34.7357 35.2059C34.2817 35.3551 33.91 35.7098 33.8574 36.0438C33.8199 36.2821 33.8411 36.3691 33.9837 36.5616C34.1365 36.768 34.5406 36.9317 34.8505 36.9127C35.5012 36.8728 35.9918 36.5896 36.1814 36.1445C36.2971 35.8727 36.245 35.6257 36.0296 35.4256ZM39.7456 50.5384C39.4602 50.2732 38.8879 50.175 38.4569 50.3171C37.9896 50.4712 37.6271 50.8156 37.5734 51.1566C37.536 51.3944 37.5572 51.4819 37.6984 51.6725C37.9142 51.964 38.4549 52.0925 38.9555 51.9711C39.8107 51.7638 40.2355 50.9934 39.7456 50.5384ZM43.4536 65.6181C43.1621 65.3474 42.5883 65.2527 42.1542 65.4037C41.8847 65.4975 41.5684 65.712 41.4272 65.8968C41.3095 66.0509 41.2336 66.3543 41.2728 66.5138C41.3537 66.843 41.8427 67.1317 42.2744 67.1052C42.9252 67.0653 43.4158 66.7821 43.6053 66.337C43.7211 66.0652 43.6689 65.8182 43.4536 65.6181ZM47.1696 80.7309C46.8827 80.4643 46.3126 80.3675 45.8757 80.5111C45.4217 80.6603 45.05 81.015 44.9974 81.3491C44.96 81.5874 44.9811 81.6743 45.1237 81.8668C45.2765 82.0733 45.6806 82.237 45.9905 82.218C46.6412 82.1781 47.1318 81.8948 47.3214 81.4497C47.4371 81.1779 47.385 80.9309 47.1696 80.7309ZM24.7649 14.0819C24.1686 13.646 23.1148 13.8885 22.7605 14.5433C22.6684 14.7134 22.6554 14.79 22.6861 14.9789C22.7178 15.1733 22.7483 15.2302 22.8865 15.353C23.1898 15.6227 23.5793 15.6994 24.0569 15.5837C24.4243 15.4946 24.6629 15.3517 24.8577 15.1039C25.0451 14.8657 25.0814 14.7158 25.0162 14.4504C24.9681 14.255 24.9348 14.2062 24.7649 14.0819ZM28.4809 29.1946C28.0253 28.8615 27.2277 28.9186 26.748 29.3186C26.1922 29.7822 26.2981 30.4286 26.9659 30.6493C27.5511 30.8427 28.2167 30.6425 28.583 30.163C28.7521 29.9418 28.7879 29.7896 28.7281 29.5467C28.6847 29.3699 28.6468 29.3159 28.4809 29.1946ZM32.2012 44.2812C31.617 43.8362 30.5393 44.08 30.1835 44.7377C30.0925 44.9058 30.0794 44.983 30.1101 45.1714C30.1418 45.3658 30.1723 45.4227 30.3104 45.5455C30.6138 45.8152 31.0032 45.8919 31.4809 45.7762C31.8483 45.6871 32.0869 45.5442 32.2817 45.2964C32.469 45.0583 32.5054 44.9082 32.4401 44.6445C32.3934 44.4563 32.3555 44.3986 32.2012 44.2812ZM35.9049 59.3872C35.3091 58.9516 34.2548 59.1938 33.901 59.8476C33.4434 60.6934 34.8165 61.2976 35.7097 60.6434C35.9173 60.4914 36.114 60.2451 36.1661 60.072C36.1866 60.0038 36.1803 59.854 36.1521 59.7392C36.1087 59.5624 36.0708 59.5084 35.9049 59.3872ZM39.6252 74.4737C39.038 74.0264 37.9514 74.2796 37.598 74.946C37.4093 75.3018 37.5675 75.715 37.9642 75.9018C38.499 76.1537 39.1917 76.0215 39.6171 75.5865C39.8683 75.3296 39.9359 75.1269 39.8653 74.842C39.8172 74.6482 39.7806 74.592 39.6252 74.4737ZM43.3288 89.5797C42.9752 89.3211 42.4542 89.2876 41.9647 89.4919C41.2756 89.7796 41.0114 90.4581 41.4436 90.8299C41.8624 91.19 42.5908 91.2048 43.1021 90.8636C43.4897 90.605 43.66 90.2729 43.5773 89.9367C43.5325 89.7543 43.496 89.7019 43.3288 89.5797ZM21.1293 23.0922C20.9523 22.9112 20.7853 22.8312 20.5091 22.795C20.1403 22.7468 19.8389 22.8015 19.5197 22.9748C18.9002 23.311 18.7181 23.9303 19.1352 24.2828C19.74 24.7939 20.9489 24.5096 21.251 23.7852C21.3535 23.5394 21.3069 23.2739 21.1293 23.0922ZM24.7613 38.1123C24.4645 37.8537 23.9424 37.78 23.4991 37.9342C23.2292 38.0281 22.9092 38.2481 22.7798 38.4288C22.6631 38.5919 22.5864 38.8925 22.6232 39.0424C22.6897 39.3128 23.0805 39.5838 23.4674 39.6278C23.6876 39.6528 24.1348 39.5689 24.3754 39.4574C24.8126 39.2549 25.0844 38.8207 24.9976 38.4637C24.9635 38.3236 24.9066 38.2389 24.7613 38.1123ZM28.5533 53.2848C28.3747 53.1021 28.209 53.0237 27.9182 52.9844C27.2033 52.8878 26.4514 53.3253 26.3491 53.8973C26.1971 54.7468 27.6779 55.0503 28.437 54.3252C28.7726 54.0046 28.8223 53.56 28.5533 53.2848ZM32.228 68.3391C31.9365 68.0684 31.3627 67.9737 30.9286 68.1247C30.4649 68.286 30.1252 68.612 30.0597 68.9586C30.0159 69.1904 30.0414 69.2955 30.184 69.4692C30.4222 69.7596 30.8348 69.8763 31.3211 69.791C31.6863 69.7269 31.9567 69.5991 32.1636 69.3927C32.5031 69.0541 32.5296 68.6194 32.228 68.3391ZM35.97 83.4664C35.6007 83.0778 34.8009 83.0633 34.2472 83.4351C33.7149 83.7924 33.6011 84.3425 33.9905 84.6753C34.4589 85.0755 35.3932 84.9907 35.8816 84.5035C36.2037 84.1822 36.2405 83.751 35.97 83.4664ZM13.735 16.9668C13.4102 16.5183 12.5033 16.4561 11.9079 16.8413C11.1389 17.3389 11.3199 18.2141 12.2195 18.3481C12.4426 18.3814 12.5367 18.3755 12.8016 18.3116C13.1652 18.2238 13.342 18.1312 13.5484 17.9206C13.8462 17.6168 13.9227 17.2259 13.735 16.9668ZM17.4507 32.0796C17.0354 31.5032 15.8225 31.5947 15.3145 32.2407C15.1498 32.4501 15.1059 32.641 15.1679 32.8777C15.3887 33.7209 17.0862 33.5983 17.4769 32.711C17.5711 32.4972 17.56 32.2313 17.4507 32.0796ZM21.1776 47.1897C20.8213 46.7427 20.1478 46.6439 19.5102 46.945C18.9401 47.2142 18.6981 47.7054 18.9347 48.1132C19.1682 48.5156 19.6332 48.648 20.2706 48.4935C20.5802 48.4184 20.6328 48.3943 20.8468 48.2297C21.0176 48.0983 21.1091 47.9915 21.1799 47.8406C21.284 47.6192 21.2829 47.3218 21.1776 47.1897ZM24.8747 62.2721C24.6114 61.9068 23.9337 61.7817 23.3639 61.9931C22.9685 62.1398 22.6352 62.4579 22.5745 62.7464C22.5352 62.9333 22.614 63.2255 22.737 63.3497C23.046 63.6613 23.7407 63.7381 24.2319 63.5149C24.8307 63.2427 25.1413 62.6422 24.8747 62.2721ZM28.6016 77.3822C28.2448 76.9347 27.5719 76.8363 26.9326 77.1382C26.4357 77.3729 26.1949 77.7665 26.3008 78.1707C26.4234 78.6384 27.0121 78.8636 27.686 78.7007C28.1376 78.5915 28.4723 78.3448 28.6181 78.0136C28.7075 77.8106 28.6995 77.5051 28.6016 77.3822ZM32.2986 92.4646C31.8841 91.8894 30.6694 91.9809 30.1624 92.6257C29.9978 92.8351 29.9538 93.0261 30.0158 93.2627C30.099 93.5804 30.3787 93.7735 30.8315 93.8258C31.3197 93.8822 31.9375 93.655 32.201 93.3221C32.4076 93.0613 32.4514 92.6766 32.2986 92.4646ZM9.88845 25.8115C9.85051 25.7592 9.70146 25.6679 9.55732 25.6086C9.09767 25.4195 8.58387 25.4831 8.12669 25.7856C7.88703 25.9442 7.78494 26.0631 7.69651 26.2872C7.60762 26.5124 7.69216 26.8573 7.87291 27.0068C8.27117 27.3363 8.90857 27.3614 9.47514 27.07C9.72528 26.9414 10.0096 26.6058 10.0359 26.408C10.0582 26.241 9.98486 25.9443 9.88845 25.8115ZM13.6197 40.9384C13.5241 40.7861 13.2098 40.6323 12.9279 40.5998C12.2761 40.5248 11.6081 40.8681 11.3984 41.3859C11.3138 41.5949 11.4049 41.9326 11.5894 42.0933C12.3342 42.7429 13.9617 42.0763 13.7256 41.2184C13.6955 41.1093 13.6479 40.9833 13.6197 40.9384ZM17.3275 56.0361C17.2348 55.8899 16.9263 55.7453 16.6353 55.7117C16.272 55.6698 15.856 55.7698 15.5574 55.971C15.166 56.2347 15.0251 56.5159 15.1104 56.8629C15.2577 57.4619 16.1318 57.6572 16.8991 57.2625C17.1492 57.1339 17.4335 56.7983 17.4599 56.6005C17.4809 56.4431 17.4195 56.1814 17.3275 56.0361ZM21.0437 71.1309C20.9509 70.9832 20.6485 70.8354 20.3597 70.7968C19.7128 70.7103 18.9979 71.0774 18.8242 71.5852C18.7471 71.8105 18.833 72.1286 19.0133 72.2859C19.1866 72.4369 19.5655 72.567 19.8023 72.5567C20.6499 72.5198 21.3021 71.9651 21.1496 71.4109C21.1195 71.3018 21.0718 71.1758 21.0437 71.1309ZM24.7597 86.2436C24.6641 86.0914 24.3498 85.9376 24.0679 85.9051C23.4131 85.8297 22.7492 86.1688 22.5408 86.685C22.4538 86.9003 22.5424 87.2356 22.7294 87.3986C23.4732 88.0472 25.1014 87.3803 24.8656 86.5237C24.8355 86.4146 24.7879 86.2885 24.7597 86.2436ZM2.39433 19.6211C2.20172 19.409 1.81033 19.2806 1.45598 19.3132C0.795394 19.3739 0.299031 19.7342 0.220186 20.2103C0.184441 20.4262 0.19171 20.4806 0.275513 20.6252C0.414867 20.8653 0.663536 21.02 0.988194 21.0683C1.21731 21.1025 1.30961 21.0969 1.57601 21.0326C2.44222 20.8235 2.84898 20.1218 2.39433 19.6211ZM6.12887 34.7462C5.9898 34.5851 5.67923 34.4435 5.41094 34.4189C5.15129 34.395 4.62254 34.5228 4.41898 34.6586C3.98391 34.9489 3.80322 35.3943 3.99001 35.7161C4.20386 36.0849 4.74591 36.2546 5.29241 36.1241C5.78265 36.0071 6.17065 35.6872 6.26114 35.3256C6.32135 35.0851 6.28536 34.9274 6.12887 34.7462ZM9.8183 49.8136C9.42019 49.3752 8.47893 49.4123 7.95325 49.8873C7.73276 50.0865 7.67434 50.1899 7.63545 50.4499C7.57657 50.8435 7.90373 51.1851 8.41216 51.2608C8.64138 51.295 8.73353 51.2894 9.00031 51.225C9.52361 51.0987 9.88475 50.8079 9.97718 50.4383C10.0394 50.19 9.99238 50.0053 9.8183 49.8136ZM13.5555 64.9355C13.3888 64.7294 12.9542 64.5855 12.5976 64.6183C11.9417 64.6786 11.4418 65.0376 11.3612 65.5061C11.3257 65.7126 11.3332 65.7694 11.414 65.9087C11.6312 66.2831 12.1715 66.4518 12.7216 66.3169C13.2082 66.1976 13.5954 65.8766 13.6851 65.5181C13.7442 65.2821 13.7094 65.1258 13.5555 64.9355ZM17.2423 80.0061C16.9483 79.6824 16.3199 79.6021 15.7954 79.8213C15.3714 79.9984 15.1126 80.2869 15.0596 80.6414C14.9995 81.043 15.3392 81.3844 15.8728 81.4589C16.5371 81.5517 17.2701 81.1545 17.4011 80.6308C17.4633 80.3825 17.4163 80.1978 17.2423 80.0061ZM20.9583 95.1189C20.6634 94.7941 20.0528 94.7136 19.525 94.9298C19.0683 95.1168 18.8214 95.3874 18.7762 95.7504C18.7491 95.9674 18.7556 95.9964 18.865 96.1465C19.0303 96.3733 19.2803 96.5094 19.5988 96.5458C20.2697 96.6224 20.9791 96.2301 21.1091 95.7106C21.171 95.4632 21.1321 95.3102 20.9583 95.1189Z" fill="url(#paint0_linear_303_979)"/>
<defs>
<linearGradient id="paint0_linear_303_979" x1="90.5164" y1="38.5861" x2="9.55357" y2="58.4938" gradientUnits="userSpaceOnUse">
<stop stop-color="#3BB3C1"/>
<stop offset="1" stop-color="#1B8895"/>
</linearGradient>
</defs>
</svg>
