<svg width="50" height="50" viewBox="0 0 50 50" fill="none" xmlns="http://www.w3.org/2000/svg">
<g clip-path="url(#clip0_432_213)">
<path d="M31.25 13.5416C30.6975 13.5416 30.1676 13.3221 29.7769 12.9314C29.3862 12.5407 29.1667 12.0108 29.1667 11.4583V8.33329H20.8333V11.4583C20.8333 12.0108 20.6138 12.5407 20.2231 12.9314C19.8324 13.3221 19.3025 13.5416 18.75 13.5416C18.1975 13.5416 17.6676 13.3221 17.2769 12.9314C16.8862 12.5407 16.6667 12.0108 16.6667 11.4583V8.33329C16.6667 6.03538 18.5354 4.16663 20.8333 4.16663H29.1667C31.4646 4.16663 33.3333 6.03538 33.3333 8.33329V11.4583C33.3333 12.0108 33.1138 12.5407 32.7231 12.9314C32.3324 13.3221 31.8025 13.5416 31.25 13.5416ZM26.4792 32.0416C25.4777 32.3858 24.3877 32.3711 23.3958 32L0 24.2083V40.1041C0 43.2708 2.5625 45.8333 5.72917 45.8333H44.2708C47.4375 45.8333 50 43.2708 50 40.1041V24.2083L26.4792 32.0416Z" fill="#6161E7"/>
<path d="M50 16.1458V20.9166L25.5 29.0833C25.3333 29.1458 25.1667 29.1666 25 29.1666C24.8333 29.1666 24.6667 29.1458 24.5 29.0833L0 20.9166V16.1458C0 12.9791 2.5625 10.4166 5.72917 10.4166H44.2708C47.4375 10.4166 50 12.9791 50 16.1458Z" fill="#6161E7"/>
</g>
<defs>
<clipPath id="clip0_432_213">
<rect width="50" height="50" fill="white"/>
</clipPath>
</defs>
</svg>
