<svg width="56" height="116" viewBox="0 0 56 116" fill="none" xmlns="http://www.w3.org/2000/svg">
<path fill-rule="evenodd" clip-rule="evenodd" d="M0.0386968 0.45596C-0.164401 0.389496 -0.503794 0.428813 -0.746111 0.546897C-1.02071 0.680712 -1.37689 1.05781 -1.49066 1.33516C-1.68189 1.80139 -1.59026 2.24312 -1.26532 2.4216C-1.03201 2.5498 -0.71665 2.55189 -0.419423 2.42728C-0.215078 2.34161 -0.136896 2.28688 0.0556207 2.09473C0.436766 1.71425 0.593306 1.27638 0.478992 0.910224C0.404545 0.671681 0.268276 0.531072 0.0386968 0.45596ZM11.1186 11.5359C10.7468 11.4128 10.3098 11.5642 9.92479 11.9497C9.65887 12.2158 9.57607 12.3653 9.50043 12.7156C9.43382 13.024 9.5616 13.3521 9.79911 13.4826C10.1739 13.6885 10.7248 13.5539 11.1265 13.1584C11.4841 12.8062 11.6484 12.3279 11.5358 11.967C11.4614 11.7287 11.3485 11.612 11.1186 11.5359ZM22.177 22.5895C21.923 22.4973 21.4908 22.5982 21.191 22.8198C20.6547 23.2162 20.4239 23.8048 20.6211 24.2729C20.777 24.6434 21.2348 24.7677 21.7095 24.5687C21.9232 24.4791 21.999 24.4264 22.1933 24.2324C22.5745 23.852 22.731 23.4141 22.6167 23.0479C22.5437 22.814 22.4093 22.6739 22.177 22.5895ZM33.2564 33.6736C32.8849 33.5506 32.4487 33.7017 32.0607 34.0878C31.8609 34.2866 31.8066 34.3623 31.7301 34.5489C31.5384 35.0161 31.6249 35.4532 31.9427 35.6241C32.3224 35.8283 32.869 35.6921 33.2688 35.2937C33.6221 34.9415 33.7852 34.4625 33.6735 34.1047C33.5991 33.8665 33.4862 33.7497 33.2564 33.6736ZM44.2919 44.7304C43.8713 44.6043 43.2923 44.8615 42.9587 45.3226C42.689 45.6952 42.6187 46.078 42.7588 46.4107C42.9174 46.7873 43.3865 46.9051 43.8808 46.6925C44.5038 46.4245 44.9181 45.71 44.7544 45.1857C44.6777 44.9396 44.5409 44.805 44.2919 44.7304ZM55.3957 55.8082C55.1462 55.7176 54.6986 55.8191 54.4129 56.0312C54.1206 56.2481 53.9069 56.5394 53.8175 56.8432C53.734 57.1265 53.7374 57.2448 53.8357 57.4832C54.0316 57.9583 54.7506 57.9812 55.3123 57.5302C55.6998 57.2189 55.9312 56.6268 55.8131 56.2486C55.7383 56.0088 55.6282 55.8927 55.3957 55.8082ZM1.54869 10.0742C1.18066 9.9589 0.635648 10.1289 0.301345 10.4632C0.0155544 10.749 -0.17901 11.271 -0.133086 11.6287C-0.112794 11.7868 0.233279 12.1167 0.402838 12.1395C0.66193 12.1743 0.909045 12.1227 1.14998 11.9833C1.70473 11.6623 2.0287 11.1258 1.9629 10.6371C1.92772 10.3758 1.75285 10.1382 1.54869 10.0742ZM12.6055 21.131C12.2374 21.0157 11.6924 21.1856 11.3581 21.52C11.1577 21.7204 10.9741 22.0827 10.941 22.3433C10.8957 22.6991 10.9156 22.7666 11.1293 22.9828C11.3564 23.2125 11.5428 23.2595 11.8917 23.1752C12.3774 23.0578 12.854 22.5851 13.006 22.0697C13.1156 21.6983 12.9149 21.2279 12.6055 21.131ZM23.6864 32.2119C23.3184 32.0966 22.7734 32.2666 22.4391 32.6009C22.1576 32.8825 21.956 33.4161 22.0042 33.7526C22.0243 33.8934 22.2425 34.1563 22.397 34.2258C22.7352 34.3781 23.2898 34.2181 23.6409 33.8669C23.8464 33.6614 24.0158 33.3919 24.0833 33.1632C24.1955 32.7827 23.9982 32.3096 23.6864 32.2119ZM34.7388 43.2675C34.4236 43.1677 33.9433 43.2984 33.5937 43.5792C33.2579 43.849 33.0313 44.3522 33.0608 44.7629C33.0776 44.9977 33.3816 45.3038 33.6345 45.3406C34.3894 45.4505 35.28 44.5578 35.1622 43.8093C35.1232 43.5615 34.9443 43.3326 34.7388 43.2675ZM45.8241 54.3497C45.4561 54.2343 44.9111 54.4043 44.5768 54.7387C44.3764 54.9391 44.1928 55.3014 44.1597 55.562C44.1144 55.9178 44.1343 55.9853 44.348 56.2015C44.5751 56.4312 44.7615 56.4782 45.1103 56.3939C45.5908 56.2778 46.0727 55.8035 46.221 55.3009C46.3333 54.9204 46.1359 54.4473 45.8241 54.3497ZM-8.11882 8.61619C-8.54613 8.48798 -9.07486 8.70921 -9.46977 9.18151C-9.68392 9.4376 -9.79532 9.75231 -9.7792 10.0557C-9.75441 10.5225 -9.34951 10.7982 -8.84791 10.6898C-8.54401 10.6242 -8.37036 10.5224 -8.09942 10.2515C-7.75857 9.91056 -7.60411 9.52486 -7.66298 9.16167C-7.69724 8.95009 -7.92861 8.67329 -8.11882 8.61619ZM2.9523 19.6965C2.6294 19.5927 2.22788 19.7014 1.88882 19.9843C1.48275 20.3231 1.2798 20.7227 1.30192 21.1399C1.31201 21.33 1.34174 21.4054 1.46219 21.5465C1.58693 21.6928 1.6427 21.7253 1.8193 21.7553C2.17118 21.8149 2.6831 21.6309 2.97364 21.3403C3.3051 21.0088 3.49899 20.3705 3.35783 20.0755C3.26306 19.8773 3.13112 19.754 2.9523 19.6965ZM14.0189 30.7539C13.5744 30.6205 12.9929 30.8803 12.6297 31.3745C12.0542 32.1577 12.4418 33.0108 13.2898 32.8275C13.5937 32.7619 13.7674 32.6602 14.0383 32.3892C14.3792 32.0483 14.5336 31.6626 14.4747 31.2994C14.4405 31.0878 14.2091 30.811 14.0189 30.7539ZM25.0942 41.8357C24.7877 41.7374 24.4467 41.8175 24.0991 42.0693C23.6636 42.3847 23.4163 42.8366 23.4395 43.2744C23.4563 43.5923 23.655 43.8416 23.9297 43.8898C24.3003 43.9547 24.8041 43.7854 25.0895 43.4999C25.4426 43.1468 25.6411 42.5175 25.4956 42.2132C25.4014 42.0163 25.269 41.8918 25.0942 41.8357ZM36.1744 52.9036C35.8695 52.7907 35.5123 52.8733 35.1403 53.1429C34.7182 53.4488 34.4735 53.902 34.4965 54.3351C34.5069 54.5324 34.5343 54.5989 34.669 54.7541C34.8059 54.9119 34.8593 54.9437 35.0382 54.974C35.4442 55.0428 35.9872 54.8135 36.281 54.4491C36.5281 54.1428 36.6612 53.7371 36.6126 53.4384C36.5792 53.2329 36.3682 52.9753 36.1744 52.9036ZM47.2355 63.9747C46.7981 63.8347 46.2141 64.0955 45.8472 64.5948C45.6467 64.8676 45.562 65.1254 45.5774 65.4154C45.5941 65.7299 45.794 65.9795 46.0675 66.0275C46.4471 66.0941 46.942 65.9229 47.2443 65.6206C47.5823 65.2825 47.7762 64.6497 47.6333 64.3509C47.5396 64.1551 47.4068 64.0295 47.2355 63.9747ZM-6.79494 18.2519C-7.05816 18.2055 -7.30759 18.2633 -7.6034 18.4391C-8.14721 18.7622 -8.46358 19.4726 -8.26927 19.934C-7.98455 20.6102 -6.91848 20.4028 -6.4134 19.5731C-6.03826 18.9568 -6.21217 18.3546 -6.79494 18.2519ZM4.31366 29.3156C3.92297 29.2338 3.3831 29.4503 3.09104 29.8057C2.90606 30.0309 2.74755 30.3852 2.73138 30.6096C2.71695 30.8105 2.80862 31.1092 2.91849 31.2191C3.11894 31.4196 3.586 31.4508 3.94027 31.2875C4.14398 31.1936 4.44941 30.9219 4.60844 30.6932C5.01206 30.1127 4.86622 29.4312 4.31366 29.3156ZM15.3428 40.3896C14.9866 40.3268 14.5607 40.4876 14.236 40.8075C14.0679 40.973 13.8403 41.4238 13.8091 41.6528C13.7843 41.835 13.8866 42.1872 13.9961 42.2967C14.1344 42.435 14.4179 42.5033 14.6798 42.4613C15.3935 42.3469 16.0034 41.5854 15.9027 40.9345C15.854 40.6195 15.6786 40.4488 15.3428 40.3896ZM26.4514 51.4533C26.0607 51.3716 25.5208 51.588 25.2288 51.9435C24.9169 52.323 24.7971 52.7801 24.9224 53.1125C25.0063 53.3351 25.083 53.412 25.2966 53.4879C25.6565 53.6158 26.0587 53.5055 26.4335 53.1761C26.7146 52.9292 26.8784 52.6798 26.9475 52.3938C27.0605 51.926 26.8558 51.5379 26.4514 51.4533ZM37.5323 62.5343C37.1417 62.4525 36.6018 62.669 36.3097 63.0244C36.1424 63.228 35.9781 63.5761 35.9476 63.7913C35.922 63.9723 36.024 64.3246 36.1338 64.4344C36.3376 64.6382 36.8021 64.6707 37.159 64.5062C37.3627 64.4123 37.6681 64.1406 37.8271 63.9119C38.2292 63.3336 38.0828 62.6494 37.5323 62.5343ZM-16.4018 16.7881C-16.6266 16.7546 -16.7869 16.778 -17.0399 16.8815C-17.2164 16.9536 -17.2939 17.0104 -17.5098 17.2253C-17.7968 17.5109 -17.8919 17.6757 -17.955 17.9968C-18.0011 18.2314 -17.9815 18.3677 -17.8724 18.5704C-17.6934 18.9033 -17.2804 18.9969 -16.8141 18.8102C-16.585 18.7185 -16.5219 18.6752 -16.3152 18.4685C-16.0286 18.1818 -15.9016 17.9437 -15.8639 17.6218C-15.8284 17.3196 -15.8757 17.1715 -16.0696 16.9776C-16.1901 16.8571 -16.2788 16.8065 -16.4018 16.7881ZM-5.32086 27.8691C-5.54664 27.8354 -5.70602 27.859 -5.96376 27.9644C-6.14614 28.039 -6.21969 28.0927 -6.43409 28.3078C-6.64994 28.5243 -6.7046 28.6002 -6.79689 28.8112C-7.06476 29.4236 -6.76094 29.9872 -6.17286 29.969C-6.05675 29.9655 -5.84582 29.9117 -5.70411 29.8496C-5.48885 29.7552 -5.40953 29.6992 -5.22129 29.5092C-5.02298 29.3089 -4.98282 29.2476 -4.88566 28.9972C-4.80657 28.7934 -4.78072 28.6448 -4.79459 28.4733C-4.81154 28.2636 -4.83499 28.2128 -4.9835 28.064C-5.10943 27.9378 -5.19626 27.8877 -5.32086 27.8691ZM5.70777 38.9246C5.2518 38.8534 4.71663 39.1439 4.39174 39.639C4.04293 40.1705 4.09854 40.7278 4.52362 40.9614C4.74374 41.0822 5.04715 41.0748 5.35364 40.941C5.65854 40.8079 6.00911 40.4724 6.15346 40.1757C6.26246 39.9515 6.31492 39.5948 6.26626 39.4086C6.21152 39.1993 5.93559 38.9601 5.70777 38.9246ZM16.8169 50.0068C16.5921 49.9733 16.4318 49.9967 16.1788 50.1002C15.8946 50.2163 15.4953 50.6032 15.3652 50.8883C14.9751 51.7434 15.5699 52.3694 16.4156 51.9939C16.8578 51.7975 17.1244 51.5106 17.2873 51.0557C17.4143 50.7008 17.3704 50.419 17.1541 50.2019C17.0281 50.0754 16.9416 50.0254 16.8169 50.0068ZM27.8455 61.0623C27.3895 60.9911 26.8544 61.2817 26.5295 61.7767C26.1807 62.3082 26.2363 62.8656 26.6613 63.0991C27.0756 63.3266 27.7812 63.0705 28.152 62.558C28.336 62.3036 28.4504 61.929 28.423 61.6704C28.4023 61.4761 28.3752 61.4228 28.219 61.2694C28.0778 61.1307 27.9972 61.086 27.8455 61.0623ZM38.9531 72.1468C38.7301 72.1113 38.5702 72.1342 38.3165 72.2379C38.0311 72.3546 37.6331 72.7408 37.5018 73.0286C37.3906 73.2722 37.3512 73.6124 37.4137 73.7889C37.4782 73.9712 37.6982 74.1809 37.8708 74.2248C38.2993 74.3336 38.9251 74.0431 39.2293 73.594C39.409 73.3288 39.5125 72.9811 39.4855 72.7331C39.4648 72.5431 39.4356 72.4845 39.2906 72.3415C39.167 72.2196 39.0741 72.166 38.9531 72.1468ZM-14.858 26.4601C-15.0117 26.3831 -15.3867 26.4241 -15.6366 26.5452C-15.7965 26.6227 -15.9145 26.7104 -16.0758 26.8714C-16.5636 27.3582 -16.6741 27.9834 -16.3346 28.3357C-15.9264 28.7593 -15.0592 28.4799 -14.6014 27.7774C-14.4549 27.5526 -14.3696 27.0556 -14.4472 26.879C-14.5122 26.7313 -14.7011 26.5386 -14.858 26.4601ZM-3.78235 37.5246C-3.94521 37.4478 -4.27855 37.4783 -4.54353 37.5941C-4.89131 37.7462 -5.18959 38.0386 -5.34599 38.381C-5.46917 38.6507 -5.49509 38.8075 -5.45432 39.0367C-5.37867 39.4625 -5.07291 39.6474 -4.58242 39.5639C-4.25762 39.5087 -4.04803 39.3965 -3.79302 39.1415C-3.48065 38.829 -3.30136 38.3845 -3.35378 38.0523C-3.37551 37.9143 -3.63608 37.5936 -3.78235 37.5246ZM7.29665 48.6075C7.13536 48.5261 6.78625 48.5569 6.52833 48.6753C6.07294 48.8845 5.66464 49.3969 5.61305 49.824C5.56183 50.2479 5.78408 50.5926 6.14845 50.6544C6.65471 50.7404 7.22238 50.4272 7.55717 49.8772C7.70366 49.6365 7.77106 49.2 7.69013 49.016C7.62886 48.8767 7.43867 48.6792 7.29665 48.6075ZM18.3109 59.6555C18.0963 59.5883 17.868 59.613 17.5912 59.7336C16.6762 60.132 16.3389 61.3671 17.0619 61.6715C17.302 61.7726 17.7797 61.7095 18.0269 61.5441C18.5366 61.2029 18.8545 60.6372 18.7848 60.1955C18.7565 60.0161 18.489 59.7113 18.3109 59.6555ZM29.4344 70.7453C29.2779 70.6663 28.9421 70.6961 28.6751 70.8128C27.8851 71.1582 27.4844 72.14 27.9414 72.6106C28.1192 72.7937 28.3864 72.8496 28.7197 72.7735C29.0968 72.6873 29.4554 72.4084 29.6949 72.0149C29.8414 71.7743 29.9088 71.3377 29.8278 71.1537C29.7666 71.0144 29.5764 70.817 29.4344 70.7453ZM-24.5283 25.0034C-24.8039 24.9209 -25.2055 25.0135 -25.4913 25.2256C-26.0273 25.6234 -26.2602 26.1878 -26.0764 26.6439C-25.9958 26.844 -25.9606 26.8874 -25.8139 26.9681C-25.5692 27.1025 -25.2757 27.1065 -24.973 26.9795C-24.4886 26.7764 -24.0614 26.231 -24.0365 25.7839C-24.0139 25.3789 -24.1859 25.1061 -24.5283 25.0034ZM-13.4474 36.0844C-13.7229 36.0018 -14.1246 36.0945 -14.4103 36.3066C-14.9413 36.7006 -15.1777 37.2662 -14.9996 37.7162C-14.9237 37.9081 -14.887 37.9535 -14.7456 38.0311C-14.3642 38.2407 -13.8141 38.1053 -13.4146 37.7036C-13.0611 37.3482 -12.8981 36.8707 -13.009 36.5155C-13.0855 36.2703 -13.1988 36.1589 -13.4474 36.0844ZM-2.39059 47.1412C-2.73338 47.0384 -3.25563 47.2178 -3.59135 47.5536C-3.74354 47.7058 -3.92391 48.046 -3.97798 48.2827C-4.02644 48.4951 -4.02012 48.5796 -3.94107 48.7759C-3.85807 48.9818 -3.82352 49.0248 -3.67616 49.1058C-3.43144 49.2402 -3.13803 49.2442 -2.83527 49.1172C-2.35091 48.9142 -1.92371 48.3687 -1.89879 47.9216C-1.87622 47.5167 -2.04817 47.2438 -2.39059 47.1412ZM8.69037 58.2221C8.41483 58.1396 8.01316 58.2322 7.72738 58.4443C7.19641 58.8383 6.95999 59.4039 7.13814 59.854C7.21407 60.0458 7.25072 60.0912 7.39209 60.1688C7.77354 60.3784 8.32359 60.243 8.72317 59.8413C9.0766 59.4859 9.23962 59.0084 9.12875 58.6533C9.05228 58.4081 8.93894 58.2966 8.69037 58.2221ZM19.7471 69.2789C19.1776 69.1082 18.3926 69.6289 18.1918 70.3108C18.1076 70.5968 18.1117 70.7162 18.2145 70.9601C18.4382 71.4916 19.2525 71.4727 19.7993 70.9234C20.1629 70.558 20.3156 70.1122 20.206 69.7355C20.1344 69.4897 19.9982 69.3542 19.7471 69.2789ZM30.8281 80.3599C30.5544 80.2778 30.1663 80.3673 29.8724 80.5803C29.5062 80.8457 29.3212 81.1226 29.2309 81.5404C29.1652 81.8449 29.3024 82.2026 29.526 82.3096C29.8394 82.4595 30.0741 82.4515 30.4483 82.2784C31.022 82.0131 31.4213 81.2871 31.2665 80.791C31.19 80.5458 31.0767 80.4344 30.8281 80.3599ZM-23.0904 34.6016C-23.5893 34.4807 -24.2919 34.8921 -24.5517 35.4576C-24.7557 35.9015 -24.733 36.2473 -24.4833 36.4994C-24.1476 36.8385 -23.5064 36.7387 -23.0397 36.2748C-22.7027 35.9399 -22.5474 35.5732 -22.5832 35.1976C-22.6 35.0219 -22.6294 34.9659 -22.7853 34.8117C-22.8857 34.7125 -23.023 34.6179 -23.0904 34.6016ZM-12.0024 45.6645C-12.3029 45.5799 -12.8976 45.7796 -13.1768 46.0588C-13.3903 46.2722 -13.57 46.6265 -13.6052 46.9032C-13.6464 47.2273 -13.6034 47.3809 -13.4195 47.5648C-13.2345 47.7497 -12.9962 47.801 -12.6693 47.7263C-12.0124 47.5763 -11.4441 46.8438 -11.524 46.2503C-11.5475 46.0759 -11.5816 46.0129 -11.7324 45.8657C-11.8316 45.7689 -11.9531 45.6783 -12.0024 45.6645ZM-0.948341 56.7421C-1.17989 56.6892 -1.50433 56.7526 -1.7623 56.9011C-2.17617 57.1395 -2.44657 57.5142 -2.5324 57.9686C-2.64356 58.5572 -2.18844 58.9537 -1.57243 58.8048C-0.923769 58.648 -0.364063 57.9178 -0.443029 57.3312C-0.466417 57.1577 -0.501246 57.0931 -0.650617 56.9459C-0.749374 56.8486 -0.883334 56.7569 -0.948341 56.7421ZM10.1035 67.804C9.73856 67.7472 9.35232 67.873 9.01621 68.158C8.66325 68.4573 8.43746 69.0503 8.53477 69.4225C8.58803 69.6262 8.83413 69.846 9.05213 69.8844C9.78998 70.0147 10.6809 69.1855 10.6153 68.4295C10.5966 68.2139 10.5748 68.1687 10.4116 68.0058C10.2934 67.8879 10.1846 67.8166 10.1035 67.804ZM21.2163 78.8832C21.0161 78.8269 20.7134 78.8807 20.4274 79.0235C20.1835 79.1453 20.1133 79.1973 19.9727 79.3602C19.7595 79.6075 19.6433 79.8592 19.6095 80.1472C19.5739 80.4502 19.6192 80.6034 19.7966 80.7809C20.2195 81.2037 21.0918 80.9095 21.5151 80.2013C21.6678 79.9457 21.7266 79.706 21.6947 79.469C21.6712 79.2946 21.6371 79.2316 21.4863 79.0844C21.3871 78.9876 21.2656 78.897 21.2163 78.8832ZM-32.6621 33.1724C-32.8447 33.1 -33.2039 33.1417 -33.4572 33.2647C-33.6905 33.378 -34.1109 33.7952 -34.21 34.0117C-34.56 34.7766 -34.1265 35.4081 -33.3706 35.2345C-33.0827 35.1684 -32.9099 35.0658 -32.6518 34.8076C-32.0443 34.2 -32.0492 33.4154 -32.6621 33.1724ZM-21.5866 44.2471C-21.79 44.1819 -22.0417 44.2031 -22.2945 44.3066C-22.489 44.3861 -22.5553 44.4348 -22.79 44.6699C-22.9501 44.8303 -23.0826 44.9893 -23.1136 45.0583C-23.3852 45.663 -23.2372 46.1887 -22.7623 46.306C-22.3822 46.3998 -21.7847 46.1538 -21.4824 45.779C-20.9989 45.1795 -21.0507 44.4188 -21.5866 44.2471ZM-10.5149 55.3144C-11.0479 55.1061 -11.9026 55.6385 -12.1346 56.3234C-12.2564 56.683 -12.1704 57.0941 -11.9368 57.269C-11.697 57.4485 -11.2384 57.4394 -10.8846 57.2481C-10.6548 57.1238 -10.2927 56.744 -10.1917 56.5213C-9.94211 55.9708 -10.0715 55.4877 -10.5149 55.3144ZM0.556534 66.3911C0.373998 66.3186 0.0147486 66.3604 -0.23856 66.4834C-0.450959 66.5865 -0.893121 67.0143 -0.975579 67.1964C-1.24854 67.7992 -1.0986 68.3295 -0.623197 68.4423C-0.235302 68.5344 0.311082 68.3199 0.62148 67.9537C0.926226 67.5941 1.0594 67.1481 0.958474 66.8248C0.887644 66.5977 0.777127 66.4785 0.556534 66.3911ZM11.6084 77.4457C11.3647 77.3489 10.9157 77.4546 10.6086 77.6809C10.1716 78.003 9.92809 78.4404 9.95072 78.8625C9.97797 79.3713 10.3339 79.6242 10.8719 79.5168C11.99 79.2938 12.5186 77.8073 11.6084 77.4457ZM22.6943 88.5288C22.5112 88.4562 22.1513 88.4983 21.8997 88.6217C21.6893 88.725 21.3261 89.0721 21.1865 89.3034C21.0627 89.5083 21.002 89.8583 21.0483 90.1C21.1468 90.6136 21.7565 90.7618 22.3523 90.417C22.6334 90.2543 22.7325 90.16 22.9113 89.885C23.1024 89.591 23.1775 89.2229 23.0981 88.9686C23.0254 88.7357 22.9163 88.6168 22.6943 88.5288ZM-31.2664 42.8101C-31.6241 42.7297 -32.1368 42.9064 -32.4476 43.2172C-32.8039 43.5736 -32.9764 44.1797 -32.8126 44.5001C-32.7025 44.7154 -32.6553 44.7598 -32.4436 44.847C-31.9982 45.0307 -31.3056 44.6924 -30.9581 44.1216C-30.6119 43.5528 -30.7597 42.924 -31.2664 42.8101ZM-20.2311 53.8641C-20.6157 53.7837 -21.1536 53.9963 -21.4519 54.3468C-21.7617 54.711 -21.8939 55.2094 -21.7641 55.5243C-21.6715 55.7489 -21.6079 55.8127 -21.3853 55.9045C-21.1467 56.0028 -20.7158 55.9339 -20.4609 55.7566C-19.9257 55.3844 -19.6545 54.8858 -19.7253 54.4042C-19.7686 54.1101 -19.9424 53.9245 -20.2311 53.8641ZM-9.15011 64.9451C-9.53272 64.865 -10.0732 65.0776 -10.3672 65.4238C-10.686 65.7991 -10.8156 66.2839 -10.6831 66.6052C-10.5907 66.8294 -10.5268 66.8937 -10.3065 66.9845C-9.9696 67.1234 -9.44027 66.9532 -9.07593 66.5888C-8.45353 65.9663 -8.49344 65.0825 -9.15011 64.9451ZM1.90666 76.0019C1.51597 75.9201 0.976085 76.1366 0.684029 76.492C0.502798 76.7126 0.344648 77.0616 0.320681 77.2939C0.30067 77.4877 0.394472 77.7884 0.511476 77.9054C0.752837 78.1467 1.32167 78.1413 1.67681 77.8943C2.21205 77.5221 2.48321 77.0235 2.41239 76.5419C2.36913 76.2478 2.19534 76.0622 1.90666 76.0019ZM12.9876 87.0828C12.603 87.0023 12.0651 87.215 11.7668 87.5655C11.4569 87.9297 11.3248 88.4281 11.4546 88.743C11.5472 88.9675 11.6108 89.0314 11.8333 89.1231C12.0719 89.2215 12.5028 89.1526 12.7578 88.9753C13.293 88.6031 13.5642 88.1045 13.4933 87.6229C13.4501 87.3288 13.2763 87.1432 12.9876 87.0828ZM-41.0226 41.3387C-41.7602 41.273 -42.5338 42.029 -42.4942 42.7767C-42.4838 42.971 -42.455 43.0436 -42.3298 43.1903C-42.2011 43.3412 -42.1453 43.3744 -41.963 43.4084C-41.5627 43.483 -41.1897 43.3469 -40.842 42.9991C-40.5746 42.7317 -40.4455 42.4847 -40.4086 42.1703C-40.3731 41.8679 -40.4204 41.72 -40.615 41.5254C-40.7583 41.3822 -40.8123 41.3574 -41.0226 41.3387ZM-29.9416 52.4196C-30.5052 52.3695 -31.157 52.8327 -31.3577 53.4262C-31.5902 54.1138 -31.1617 54.6154 -30.4754 54.4586C-29.8742 54.3212 -29.4101 53.8033 -29.3478 53.2003C-29.3191 52.922 -29.368 52.7724 -29.5462 52.5943C-29.6758 52.4647 -29.7364 52.4379 -29.9416 52.4196ZM-18.8707 63.4758C-19.6027 63.3961 -20.3962 64.1656 -20.3563 64.9166C-20.3461 65.1085 -20.3169 65.1818 -20.1921 65.3281C-20.0634 65.4789 -20.0075 65.5121 -19.8252 65.5461C-19.425 65.6208 -19.052 65.4846 -18.7043 65.1369C-18.4369 64.8694 -18.3077 64.6225 -18.2709 64.308C-18.2354 64.0057 -18.2827 63.8576 -18.4765 63.6645C-18.6149 63.5267 -18.6774 63.4968 -18.8707 63.4758ZM-7.80388 74.5574C-8.5409 74.4917 -9.31519 75.2477 -9.27553 75.9943C-9.22426 76.96 -7.73472 76.7672 -7.3135 75.7402C-7.2156 75.5016 -7.17636 75.1874 -7.22238 75.0113C-7.24055 74.9419 -7.32427 74.8162 -7.40844 74.732C-7.53803 74.6024 -7.59866 74.5756 -7.80388 74.5574ZM3.26705 85.6135C2.53123 85.5334 1.73504 86.3156 1.78159 87.0728C1.80648 87.4771 2.15785 87.7506 2.59456 87.7055C3.18332 87.6447 3.70626 87.1711 3.84221 86.5758C3.9225 86.2241 3.87419 86.0145 3.66485 85.8059C3.52244 85.6641 3.46168 85.6347 3.26705 85.6135ZM14.3338 96.6951C13.8964 96.6561 13.4336 96.8978 13.1222 97.3279C12.6838 97.9334 12.8128 98.6547 13.3767 98.7503C13.9229 98.8429 14.5532 98.4774 14.8117 97.9182C15.0077 97.4943 14.9794 97.1199 14.733 96.8734C14.5992 96.7397 14.5406 96.7135 14.3338 96.6951ZM-39.4164 50.9835C-39.6624 50.9195 -39.847 50.9373 -40.1019 51.0496C-40.4423 51.1997 -40.6713 51.4033 -40.8535 51.7182C-41.207 52.3292 -41.0387 52.957 -40.4979 53.0439C-39.7136 53.1699 -38.8292 52.2974 -38.95 51.5169C-38.991 51.252 -39.1696 51.0477 -39.4164 50.9835ZM-28.4557 62.0283C-28.8447 61.9598 -29.3295 62.1675 -29.6277 62.5303C-29.8092 62.7513 -29.9676 63.1069 -29.9836 63.3296C-29.9981 63.5306 -29.9064 63.8293 -29.7965 63.9392C-29.5982 64.1375 -29.1225 64.1679 -28.7688 64.0049C-28.5676 63.9121 -28.2293 63.6076 -28.082 63.3866C-27.8143 62.9853 -27.8091 62.4703 -28.0701 62.2081C-28.1724 62.1052 -28.2654 62.0618 -28.4557 62.0283ZM-17.2787 73.1212C-17.5268 73.0567 -17.7095 73.0753 -17.9785 73.1924C-18.64 73.4804 -19.0538 74.2475 -18.842 74.7931C-18.5275 75.6033 -17.1033 75.0957 -16.8339 74.0773C-16.7147 73.6271 -16.9048 73.2185 -17.2787 73.1212ZM-6.26362 84.1734C-6.65431 84.0917 -7.19419 84.3081 -7.48624 84.6635C-7.79811 85.0431 -7.91788 85.5002 -7.79262 85.8326C-7.70882 86.0549 -7.63204 86.1321 -7.41931 86.2077C-7.06387 86.3339 -6.65022 86.2202 -6.27916 85.8942C-6.00057 85.6494 -5.83636 85.399 -5.76752 85.1138C-5.65449 84.646 -5.85924 84.258 -6.26362 84.1734ZM4.84718 95.2534C4.32828 95.1106 3.63712 95.5134 3.35839 96.121C3.09047 96.705 3.28095 97.2376 3.78781 97.3219C4.39744 97.4232 5.15156 96.8651 5.31412 96.1921C5.42132 95.7482 5.2272 95.3579 4.84718 95.2534ZM-48.9398 49.5496C-49.4519 49.3322 -50.2596 49.7495 -50.5669 50.3904C-50.9638 51.2181 -50.3513 51.8775 -49.5124 51.5258C-49.3044 51.4386 -49.2271 51.3847 -49.0341 51.1921C-48.7693 50.9277 -48.6666 50.7562 -48.6003 50.4677C-48.5048 50.0515 -48.6439 49.6753 -48.9398 49.5496ZM-37.8591 60.6308C-38.5156 60.3503 -39.5043 61.0589 -39.6005 61.8788C-39.6317 62.1445 -39.5693 62.3318 -39.3926 62.5033C-38.7628 63.1145 -37.3762 62.1276 -37.5064 61.1608C-37.5378 60.9279 -37.6863 60.7047 -37.8591 60.6308ZM-26.7703 71.7039C-27.3086 71.5041 -27.9358 71.7687 -28.3233 72.359C-28.6696 72.8869 -28.6195 73.4354 -28.204 73.6636C-27.794 73.8888 -27.3273 73.7612 -26.8634 73.2972C-26.6381 73.0719 -26.6057 73.0238 -26.509 72.771C-26.4317 72.5692 -26.4094 72.4297 -26.4278 72.2631C-26.4547 72.0184 -26.6112 71.7629 -26.7703 71.7039ZM-15.7214 82.7686C-16.1374 82.5908 -16.7821 82.835 -17.1585 83.3128C-17.4196 83.6445 -17.5381 84.0914 -17.439 84.3713C-17.3748 84.5526 -17.1547 84.7633 -16.9846 84.8063C-16.5576 84.9141 -15.9237 84.6195 -15.6206 84.1722C-15.2513 83.627 -15.2999 82.9487 -15.7214 82.7686ZM-4.63252 93.8416C-5.17151 93.6416 -5.79807 93.9063 -6.1865 94.4982C-6.4884 94.9582 -6.48829 95.4221 -6.18635 95.7151C-5.83698 96.0541 -5.21603 95.9423 -4.72535 95.4521C-4.39654 95.1236 -4.23952 94.7374 -4.28814 94.3765C-4.31789 94.1554 -4.48459 93.8965 -4.63252 93.8416ZM6.41634 104.906C5.76113 104.626 4.77098 105.336 4.67494 106.154C4.64376 106.42 4.7061 106.607 4.88286 106.779C5.12017 107.009 5.46021 107.03 5.87453 106.84C6.32122 106.635 6.73033 106.119 6.78147 105.695C6.82158 105.363 6.65776 105.009 6.41634 104.906ZM-47.6006 59.1615C-47.6604 59.1361 -47.8356 59.1349 -47.9898 59.1587C-48.4815 59.2346 -48.8874 59.5561 -49.1198 60.0539C-49.2417 60.3149 -49.2667 60.4703 -49.2251 60.7092C-49.1832 60.9492 -48.9306 61.2022 -48.6979 61.2371C-48.1852 61.3139 -47.6273 61.0046 -47.2956 60.4595C-47.1491 60.2189 -47.0817 59.7823 -47.1626 59.5983C-47.2309 59.4431 -47.4488 59.2257 -47.6006 59.1615ZM-36.4993 70.2466C-36.6606 70.1652 -37.0097 70.196 -37.2676 70.3145C-37.8639 70.5883 -38.2552 71.2307 -38.1635 71.7853C-38.1266 72.0092 -37.872 72.2526 -37.6303 72.2952C-36.654 72.4676 -35.6118 71.0487 -36.2623 70.4328C-36.3451 70.3544 -36.4517 70.2707 -36.4993 70.2466ZM-25.4333 81.319C-25.5889 81.2412 -25.9282 81.2769 -26.1945 81.3991C-26.5269 81.5516 -26.8301 81.8538 -26.98 82.1821C-27.1766 82.6123 -27.1499 82.9276 -26.8955 83.182C-26.4563 83.6212 -25.6072 83.3355 -25.1578 82.5972C-25.0114 82.3566 -24.9439 81.9201 -25.0249 81.7361C-25.0893 81.5897 -25.2786 81.3962 -25.4333 81.319ZM-14.3616 92.3844C-14.5181 92.3054 -14.8539 92.3352 -15.1208 92.4519C-15.719 92.7134 -16.138 93.4006 -16.0208 93.928C-15.9688 94.162 -15.729 94.3912 -15.4926 94.433C-15.2655 94.4731 -14.8737 94.3883 -14.6767 94.2565C-13.9716 93.7846 -13.7043 92.9684 -14.1246 92.5705C-14.2074 92.4921 -14.314 92.4084 -14.3616 92.3844ZM-3.28063 103.465C-3.44192 103.384 -3.79102 103.415 -4.04895 103.533C-4.64798 103.808 -5.03799 104.445 -4.94608 104.998C-4.90777 105.228 -4.65668 105.471 -4.41164 105.514C-3.43673 105.686 -2.39402 104.266 -3.04363 103.651C-3.1264 103.573 -3.23306 103.489 -3.28063 103.465ZM-57.2433 57.7235C-57.5189 57.641 -57.9205 57.7336 -58.2063 57.9457C-58.7391 58.341 -58.9748 58.9089 -58.7932 59.3597C-58.7108 59.5641 -58.6761 59.6073 -58.5289 59.6881C-58.2842 59.8225 -57.9908 59.8265 -57.688 59.6996C-57.4743 59.61 -57.3984 59.5573 -57.2044 59.3636C-56.5735 58.7338 -56.5928 57.9185 -57.2433 57.7235ZM-46.1401 68.8055C-46.3432 68.739 -46.6827 68.7784 -46.9248 68.8965C-47.1592 69.0108 -47.5443 69.3954 -47.6472 69.618C-47.8672 70.0938 -47.7886 70.5711 -47.4606 70.7512C-47.085 70.9575 -46.533 70.8222 -46.1342 70.4261C-45.7764 70.0708 -45.6122 69.5939 -45.724 69.2356C-45.7983 68.9973 -45.9115 68.8803 -46.1401 68.8055ZM-35.1056 79.8612C-35.6751 79.6905 -36.4601 80.2113 -36.661 80.8931C-36.7452 81.1791 -36.741 81.2985 -36.6383 81.5425C-36.4827 81.9119 -36.0244 82.0361 -35.5503 81.8373C-35.3365 81.7477 -35.2607 81.695 -35.0664 81.5011C-34.6852 81.1206 -34.5287 80.6827 -34.643 80.3166C-34.7198 80.0705 -34.8565 79.9359 -35.1056 79.8612ZM-24.0018 90.9391C-24.252 90.8482 -24.6987 90.95 -24.9863 91.1634C-25.5153 91.5559 -25.7548 92.1245 -25.5785 92.5697C-25.5009 92.7659 -25.4648 92.811 -25.3229 92.8889C-24.9415 93.0984 -24.3914 92.9631 -23.9918 92.5614C-23.6384 92.206 -23.4754 91.7285 -23.5863 91.3733C-23.6592 91.1395 -23.7707 91.0231 -24.0018 90.9391ZM-12.9679 101.999C-13.3884 101.873 -13.9674 102.13 -14.3011 102.591C-14.5707 102.964 -14.641 103.347 -14.5009 103.679C-14.3422 104.056 -13.8733 104.174 -13.3783 103.961C-12.762 103.696 -12.3433 102.973 -12.5053 102.454C-12.5821 102.208 -12.7188 102.074 -12.9679 101.999ZM-1.88691 113.08C-2.30881 112.953 -2.87274 113.201 -3.21076 113.661C-3.50318 114.06 -3.57264 114.421 -3.42146 114.757C-3.33107 114.958 -3.31033 114.979 -3.13827 115.052C-2.87843 115.161 -2.59355 115.148 -2.30237 115.014C-1.68891 114.732 -1.28784 114.026 -1.44854 113.511C-1.52501 113.266 -1.63834 113.154 -1.88691 113.08Z" fill="url(#paint0_linear_303_969)"/>
<defs>
<linearGradient id="paint0_linear_303_969" x1="27.9873" y1="28.292" x2="-30.9918" y2="87.2711" gradientUnits="userSpaceOnUse">
<stop stop-color="#3BB3C1"/>
<stop offset="1" stop-color="#1B8895"/>
</linearGradient>
</defs>
</svg>
