<svg width="117" height="112" viewBox="0 0 117 112" fill="none" xmlns="http://www.w3.org/2000/svg">
<path d="M3.77419 1.64706C3.77419 2.5567 2.92931 3.29412 1.8871 3.29412C0.844882 3.29412 0 2.5567 0 1.64706C0 0.737413 0.844882 0 1.8871 0C2.92931 0 3.77419 0.737413 3.77419 1.64706Z" fill="url(#paint0_linear_8_558)" fill-opacity="0.49"/>
<path d="M15.0968 1.64706C15.0968 2.5567 14.2519 3.29412 13.2097 3.29412C12.1675 3.29412 11.3226 2.5567 11.3226 1.64706C11.3226 0.737413 12.1675 0 13.2097 0C14.2519 0 15.0968 0.737413 15.0968 1.64706Z" fill="url(#paint1_linear_8_558)" fill-opacity="0.49"/>
<path d="M26.4194 1.64706C26.4194 2.5567 25.5745 3.29412 24.5323 3.29412C23.49 3.29412 22.6452 2.5567 22.6452 1.64706C22.6452 0.737413 23.49 0 24.5323 0C25.5745 0 26.4194 0.737413 26.4194 1.64706Z" fill="url(#paint2_linear_8_558)" fill-opacity="0.49"/>
<path d="M37.7419 1.64706C37.7419 2.5567 36.897 3.29412 35.8548 3.29412C34.8126 3.29412 33.9677 2.5567 33.9677 1.64706C33.9677 0.737413 34.8126 0 35.8548 0C36.897 0 37.7419 0.737413 37.7419 1.64706Z" fill="url(#paint3_linear_8_558)" fill-opacity="0.49"/>
<path d="M49.0645 1.64706C49.0645 2.5567 48.2196 3.29412 47.1774 3.29412C46.1352 3.29412 45.2903 2.5567 45.2903 1.64706C45.2903 0.737413 46.1352 0 47.1774 0C48.2196 0 49.0645 0.737413 49.0645 1.64706Z" fill="url(#paint4_linear_8_558)" fill-opacity="0.49"/>
<path d="M60.3871 1.64706C60.3871 2.5567 59.5422 3.29412 58.5 3.29412C57.4578 3.29412 56.6129 2.5567 56.6129 1.64706C56.6129 0.737413 57.4578 0 58.5 0C59.5422 0 60.3871 0.737413 60.3871 1.64706Z" fill="url(#paint5_linear_8_558)" fill-opacity="0.49"/>
<path d="M71.7097 1.64706C71.7097 2.5567 70.8648 3.29412 69.8226 3.29412C68.7804 3.29412 67.9355 2.5567 67.9355 1.64706C67.9355 0.737413 68.7804 0 69.8226 0C70.8648 0 71.7097 0.737413 71.7097 1.64706Z" fill="url(#paint6_linear_8_558)" fill-opacity="0.49"/>
<path d="M83.0322 1.64706C83.0322 2.5567 82.1874 3.29412 81.1452 3.29412C80.1029 3.29412 79.2581 2.5567 79.2581 1.64706C79.2581 0.737413 80.1029 0 81.1452 0C82.1874 0 83.0322 0.737413 83.0322 1.64706Z" fill="url(#paint7_linear_8_558)" fill-opacity="0.49"/>
<path d="M94.3548 1.64706C94.3548 2.5567 93.5099 3.29412 92.4677 3.29412C91.4255 3.29412 90.5806 2.5567 90.5806 1.64706C90.5806 0.737413 91.4255 0 92.4677 0C93.5099 0 94.3548 0.737413 94.3548 1.64706Z" fill="url(#paint8_linear_8_558)" fill-opacity="0.49"/>
<path d="M105.677 1.64706C105.677 2.5567 104.833 3.29412 103.79 3.29412C102.748 3.29412 101.903 2.5567 101.903 1.64706C101.903 0.737413 102.748 0 103.79 0C104.833 0 105.677 0.737413 105.677 1.64706Z" fill="url(#paint9_linear_8_558)" fill-opacity="0.49"/>
<path d="M117 1.64706C117 2.5567 116.155 3.29412 115.113 3.29412C114.071 3.29412 113.226 2.5567 113.226 1.64706C113.226 0.737413 114.071 0 115.113 0C116.155 0 117 0.737413 117 1.64706Z" fill="url(#paint10_linear_8_558)" fill-opacity="0.49"/>
<path d="M3.77419 11.5294C3.77419 12.4391 2.92931 13.1765 1.8871 13.1765C0.844882 13.1765 0 12.4391 0 11.5294C0 10.6198 0.844882 9.88235 1.8871 9.88235C2.92931 9.88235 3.77419 10.6198 3.77419 11.5294Z" fill="url(#paint11_linear_8_558)" fill-opacity="0.49"/>
<path d="M15.0968 11.5294C15.0968 12.4391 14.2519 13.1765 13.2097 13.1765C12.1675 13.1765 11.3226 12.4391 11.3226 11.5294C11.3226 10.6198 12.1675 9.88235 13.2097 9.88235C14.2519 9.88235 15.0968 10.6198 15.0968 11.5294Z" fill="url(#paint12_linear_8_558)" fill-opacity="0.49"/>
<path d="M26.4194 11.5294C26.4194 12.4391 25.5745 13.1765 24.5323 13.1765C23.49 13.1765 22.6452 12.4391 22.6452 11.5294C22.6452 10.6198 23.49 9.88235 24.5323 9.88235C25.5745 9.88235 26.4194 10.6198 26.4194 11.5294Z" fill="url(#paint13_linear_8_558)" fill-opacity="0.49"/>
<path d="M37.7419 11.5294C37.7419 12.4391 36.897 13.1765 35.8548 13.1765C34.8126 13.1765 33.9677 12.4391 33.9677 11.5294C33.9677 10.6198 34.8126 9.88235 35.8548 9.88235C36.897 9.88235 37.7419 10.6198 37.7419 11.5294Z" fill="url(#paint14_linear_8_558)" fill-opacity="0.49"/>
<path d="M49.0645 11.5294C49.0645 12.4391 48.2196 13.1765 47.1774 13.1765C46.1352 13.1765 45.2903 12.4391 45.2903 11.5294C45.2903 10.6198 46.1352 9.88235 47.1774 9.88235C48.2196 9.88235 49.0645 10.6198 49.0645 11.5294Z" fill="url(#paint15_linear_8_558)" fill-opacity="0.49"/>
<path d="M60.3871 11.5294C60.3871 12.4391 59.5422 13.1765 58.5 13.1765C57.4578 13.1765 56.6129 12.4391 56.6129 11.5294C56.6129 10.6198 57.4578 9.88235 58.5 9.88235C59.5422 9.88235 60.3871 10.6198 60.3871 11.5294Z" fill="url(#paint16_linear_8_558)" fill-opacity="0.49"/>
<path d="M71.7097 11.5294C71.7097 12.4391 70.8648 13.1765 69.8226 13.1765C68.7804 13.1765 67.9355 12.4391 67.9355 11.5294C67.9355 10.6198 68.7804 9.88235 69.8226 9.88235C70.8648 9.88235 71.7097 10.6198 71.7097 11.5294Z" fill="url(#paint17_linear_8_558)" fill-opacity="0.49"/>
<path d="M83.0322 11.5294C83.0322 12.4391 82.1874 13.1765 81.1452 13.1765C80.1029 13.1765 79.2581 12.4391 79.2581 11.5294C79.2581 10.6198 80.1029 9.88235 81.1452 9.88235C82.1874 9.88235 83.0322 10.6198 83.0322 11.5294Z" fill="url(#paint18_linear_8_558)" fill-opacity="0.49"/>
<path d="M94.3548 11.5294C94.3548 12.4391 93.5099 13.1765 92.4677 13.1765C91.4255 13.1765 90.5806 12.4391 90.5806 11.5294C90.5806 10.6198 91.4255 9.88235 92.4677 9.88235C93.5099 9.88235 94.3548 10.6198 94.3548 11.5294Z" fill="url(#paint19_linear_8_558)" fill-opacity="0.49"/>
<path d="M105.677 11.5294C105.677 12.4391 104.833 13.1765 103.79 13.1765C102.748 13.1765 101.903 12.4391 101.903 11.5294C101.903 10.6198 102.748 9.88235 103.79 9.88235C104.833 9.88235 105.677 10.6198 105.677 11.5294Z" fill="url(#paint20_linear_8_558)" fill-opacity="0.49"/>
<path d="M117 11.5294C117 12.4391 116.155 13.1765 115.113 13.1765C114.071 13.1765 113.226 12.4391 113.226 11.5294C113.226 10.6198 114.071 9.88235 115.113 9.88235C116.155 9.88235 117 10.6198 117 11.5294Z" fill="url(#paint21_linear_8_558)" fill-opacity="0.49"/>
<path d="M3.77419 21.4118C3.77419 22.3214 2.92931 23.0588 1.8871 23.0588C0.844882 23.0588 0 22.3214 0 21.4118C0 20.5021 0.844882 19.7647 1.8871 19.7647C2.92931 19.7647 3.77419 20.5021 3.77419 21.4118Z" fill="url(#paint22_linear_8_558)" fill-opacity="0.49"/>
<path d="M15.0968 21.4118C15.0968 22.3214 14.2519 23.0588 13.2097 23.0588C12.1675 23.0588 11.3226 22.3214 11.3226 21.4118C11.3226 20.5021 12.1675 19.7647 13.2097 19.7647C14.2519 19.7647 15.0968 20.5021 15.0968 21.4118Z" fill="url(#paint23_linear_8_558)" fill-opacity="0.49"/>
<path d="M26.4194 21.4118C26.4194 22.3214 25.5745 23.0588 24.5323 23.0588C23.49 23.0588 22.6452 22.3214 22.6452 21.4118C22.6452 20.5021 23.49 19.7647 24.5323 19.7647C25.5745 19.7647 26.4194 20.5021 26.4194 21.4118Z" fill="url(#paint24_linear_8_558)" fill-opacity="0.49"/>
<path d="M37.7419 21.4118C37.7419 22.3214 36.897 23.0588 35.8548 23.0588C34.8126 23.0588 33.9677 22.3214 33.9677 21.4118C33.9677 20.5021 34.8126 19.7647 35.8548 19.7647C36.897 19.7647 37.7419 20.5021 37.7419 21.4118Z" fill="url(#paint25_linear_8_558)" fill-opacity="0.49"/>
<path d="M49.0645 21.4118C49.0645 22.3214 48.2196 23.0588 47.1774 23.0588C46.1352 23.0588 45.2903 22.3214 45.2903 21.4118C45.2903 20.5021 46.1352 19.7647 47.1774 19.7647C48.2196 19.7647 49.0645 20.5021 49.0645 21.4118Z" fill="url(#paint26_linear_8_558)" fill-opacity="0.49"/>
<path d="M60.3871 21.4118C60.3871 22.3214 59.5422 23.0588 58.5 23.0588C57.4578 23.0588 56.6129 22.3214 56.6129 21.4118C56.6129 20.5021 57.4578 19.7647 58.5 19.7647C59.5422 19.7647 60.3871 20.5021 60.3871 21.4118Z" fill="url(#paint27_linear_8_558)" fill-opacity="0.49"/>
<path d="M71.7097 21.4118C71.7097 22.3214 70.8648 23.0588 69.8226 23.0588C68.7804 23.0588 67.9355 22.3214 67.9355 21.4118C67.9355 20.5021 68.7804 19.7647 69.8226 19.7647C70.8648 19.7647 71.7097 20.5021 71.7097 21.4118Z" fill="url(#paint28_linear_8_558)" fill-opacity="0.49"/>
<path d="M83.0322 21.4118C83.0322 22.3214 82.1874 23.0588 81.1452 23.0588C80.1029 23.0588 79.2581 22.3214 79.2581 21.4118C79.2581 20.5021 80.1029 19.7647 81.1452 19.7647C82.1874 19.7647 83.0322 20.5021 83.0322 21.4118Z" fill="url(#paint29_linear_8_558)" fill-opacity="0.49"/>
<path d="M94.3548 21.4118C94.3548 22.3214 93.5099 23.0588 92.4677 23.0588C91.4255 23.0588 90.5806 22.3214 90.5806 21.4118C90.5806 20.5021 91.4255 19.7647 92.4677 19.7647C93.5099 19.7647 94.3548 20.5021 94.3548 21.4118Z" fill="url(#paint30_linear_8_558)" fill-opacity="0.49"/>
<path d="M105.677 21.4118C105.677 22.3214 104.833 23.0588 103.79 23.0588C102.748 23.0588 101.903 22.3214 101.903 21.4118C101.903 20.5021 102.748 19.7647 103.79 19.7647C104.833 19.7647 105.677 20.5021 105.677 21.4118Z" fill="url(#paint31_linear_8_558)" fill-opacity="0.49"/>
<path d="M117 21.4118C117 22.3214 116.155 23.0588 115.113 23.0588C114.071 23.0588 113.226 22.3214 113.226 21.4118C113.226 20.5021 114.071 19.7647 115.113 19.7647C116.155 19.7647 117 20.5021 117 21.4118Z" fill="url(#paint32_linear_8_558)" fill-opacity="0.49"/>
<path d="M3.77419 31.2941C3.77419 32.2038 2.92931 32.9412 1.8871 32.9412C0.844882 32.9412 0 32.2038 0 31.2941C0 30.3845 0.844882 29.6471 1.8871 29.6471C2.92931 29.6471 3.77419 30.3845 3.77419 31.2941Z" fill="url(#paint33_linear_8_558)" fill-opacity="0.49"/>
<path d="M15.0968 31.2941C15.0968 32.2038 14.2519 32.9412 13.2097 32.9412C12.1675 32.9412 11.3226 32.2038 11.3226 31.2941C11.3226 30.3845 12.1675 29.6471 13.2097 29.6471C14.2519 29.6471 15.0968 30.3845 15.0968 31.2941Z" fill="url(#paint34_linear_8_558)" fill-opacity="0.49"/>
<path d="M26.4194 31.2941C26.4194 32.2038 25.5745 32.9412 24.5323 32.9412C23.49 32.9412 22.6452 32.2038 22.6452 31.2941C22.6452 30.3845 23.49 29.6471 24.5323 29.6471C25.5745 29.6471 26.4194 30.3845 26.4194 31.2941Z" fill="url(#paint35_linear_8_558)" fill-opacity="0.49"/>
<path d="M37.7419 31.2941C37.7419 32.2038 36.897 32.9412 35.8548 32.9412C34.8126 32.9412 33.9677 32.2038 33.9677 31.2941C33.9677 30.3845 34.8126 29.6471 35.8548 29.6471C36.897 29.6471 37.7419 30.3845 37.7419 31.2941Z" fill="url(#paint36_linear_8_558)" fill-opacity="0.49"/>
<path d="M49.0645 31.2941C49.0645 32.2038 48.2196 32.9412 47.1774 32.9412C46.1352 32.9412 45.2903 32.2038 45.2903 31.2941C45.2903 30.3845 46.1352 29.6471 47.1774 29.6471C48.2196 29.6471 49.0645 30.3845 49.0645 31.2941Z" fill="url(#paint37_linear_8_558)" fill-opacity="0.49"/>
<path d="M60.3871 31.2941C60.3871 32.2038 59.5422 32.9412 58.5 32.9412C57.4578 32.9412 56.6129 32.2038 56.6129 31.2941C56.6129 30.3845 57.4578 29.6471 58.5 29.6471C59.5422 29.6471 60.3871 30.3845 60.3871 31.2941Z" fill="url(#paint38_linear_8_558)" fill-opacity="0.49"/>
<path d="M71.7097 31.2941C71.7097 32.2038 70.8648 32.9412 69.8226 32.9412C68.7804 32.9412 67.9355 32.2038 67.9355 31.2941C67.9355 30.3845 68.7804 29.6471 69.8226 29.6471C70.8648 29.6471 71.7097 30.3845 71.7097 31.2941Z" fill="url(#paint39_linear_8_558)" fill-opacity="0.49"/>
<path d="M83.0322 31.2941C83.0322 32.2038 82.1874 32.9412 81.1452 32.9412C80.1029 32.9412 79.2581 32.2038 79.2581 31.2941C79.2581 30.3845 80.1029 29.6471 81.1452 29.6471C82.1874 29.6471 83.0322 30.3845 83.0322 31.2941Z" fill="url(#paint40_linear_8_558)" fill-opacity="0.49"/>
<path d="M94.3548 31.2941C94.3548 32.2038 93.5099 32.9412 92.4677 32.9412C91.4255 32.9412 90.5806 32.2038 90.5806 31.2941C90.5806 30.3845 91.4255 29.6471 92.4677 29.6471C93.5099 29.6471 94.3548 30.3845 94.3548 31.2941Z" fill="url(#paint41_linear_8_558)" fill-opacity="0.49"/>
<path d="M105.677 31.2941C105.677 32.2038 104.833 32.9412 103.79 32.9412C102.748 32.9412 101.903 32.2038 101.903 31.2941C101.903 30.3845 102.748 29.6471 103.79 29.6471C104.833 29.6471 105.677 30.3845 105.677 31.2941Z" fill="url(#paint42_linear_8_558)" fill-opacity="0.49"/>
<path d="M117 31.2941C117 32.2038 116.155 32.9412 115.113 32.9412C114.071 32.9412 113.226 32.2038 113.226 31.2941C113.226 30.3845 114.071 29.6471 115.113 29.6471C116.155 29.6471 117 30.3845 117 31.2941Z" fill="url(#paint43_linear_8_558)" fill-opacity="0.49"/>
<path d="M3.77419 41.1765C3.77419 42.0861 2.92931 42.8235 1.8871 42.8235C0.844882 42.8235 0 42.0861 0 41.1765C0 40.2668 0.844882 39.5294 1.8871 39.5294C2.92931 39.5294 3.77419 40.2668 3.77419 41.1765Z" fill="url(#paint44_linear_8_558)" fill-opacity="0.49"/>
<path d="M15.0968 41.1765C15.0968 42.0861 14.2519 42.8235 13.2097 42.8235C12.1675 42.8235 11.3226 42.0861 11.3226 41.1765C11.3226 40.2668 12.1675 39.5294 13.2097 39.5294C14.2519 39.5294 15.0968 40.2668 15.0968 41.1765Z" fill="url(#paint45_linear_8_558)" fill-opacity="0.49"/>
<path d="M26.4194 41.1765C26.4194 42.0861 25.5745 42.8235 24.5323 42.8235C23.49 42.8235 22.6452 42.0861 22.6452 41.1765C22.6452 40.2668 23.49 39.5294 24.5323 39.5294C25.5745 39.5294 26.4194 40.2668 26.4194 41.1765Z" fill="url(#paint46_linear_8_558)" fill-opacity="0.49"/>
<path d="M37.7419 41.1765C37.7419 42.0861 36.897 42.8235 35.8548 42.8235C34.8126 42.8235 33.9677 42.0861 33.9677 41.1765C33.9677 40.2668 34.8126 39.5294 35.8548 39.5294C36.897 39.5294 37.7419 40.2668 37.7419 41.1765Z" fill="url(#paint47_linear_8_558)" fill-opacity="0.49"/>
<path d="M49.0645 41.1765C49.0645 42.0861 48.2196 42.8235 47.1774 42.8235C46.1352 42.8235 45.2903 42.0861 45.2903 41.1765C45.2903 40.2668 46.1352 39.5294 47.1774 39.5294C48.2196 39.5294 49.0645 40.2668 49.0645 41.1765Z" fill="url(#paint48_linear_8_558)" fill-opacity="0.49"/>
<path d="M60.3871 41.1765C60.3871 42.0861 59.5422 42.8235 58.5 42.8235C57.4578 42.8235 56.6129 42.0861 56.6129 41.1765C56.6129 40.2668 57.4578 39.5294 58.5 39.5294C59.5422 39.5294 60.3871 40.2668 60.3871 41.1765Z" fill="url(#paint49_linear_8_558)" fill-opacity="0.49"/>
<path d="M71.7097 41.1765C71.7097 42.0861 70.8648 42.8235 69.8226 42.8235C68.7804 42.8235 67.9355 42.0861 67.9355 41.1765C67.9355 40.2668 68.7804 39.5294 69.8226 39.5294C70.8648 39.5294 71.7097 40.2668 71.7097 41.1765Z" fill="url(#paint50_linear_8_558)" fill-opacity="0.49"/>
<path d="M83.0322 41.1765C83.0322 42.0861 82.1874 42.8235 81.1452 42.8235C80.1029 42.8235 79.2581 42.0861 79.2581 41.1765C79.2581 40.2668 80.1029 39.5294 81.1452 39.5294C82.1874 39.5294 83.0322 40.2668 83.0322 41.1765Z" fill="url(#paint51_linear_8_558)" fill-opacity="0.49"/>
<path d="M94.3548 41.1765C94.3548 42.0861 93.5099 42.8235 92.4677 42.8235C91.4255 42.8235 90.5806 42.0861 90.5806 41.1765C90.5806 40.2668 91.4255 39.5294 92.4677 39.5294C93.5099 39.5294 94.3548 40.2668 94.3548 41.1765Z" fill="url(#paint52_linear_8_558)" fill-opacity="0.49"/>
<path d="M105.677 41.1765C105.677 42.0861 104.833 42.8235 103.79 42.8235C102.748 42.8235 101.903 42.0861 101.903 41.1765C101.903 40.2668 102.748 39.5294 103.79 39.5294C104.833 39.5294 105.677 40.2668 105.677 41.1765Z" fill="url(#paint53_linear_8_558)" fill-opacity="0.49"/>
<path d="M117 41.1765C117 42.0861 116.155 42.8235 115.113 42.8235C114.071 42.8235 113.226 42.0861 113.226 41.1765C113.226 40.2668 114.071 39.5294 115.113 39.5294C116.155 39.5294 117 40.2668 117 41.1765Z" fill="url(#paint54_linear_8_558)" fill-opacity="0.49"/>
<path d="M3.77419 51.0588C3.77419 51.9685 2.92931 52.7059 1.8871 52.7059C0.844882 52.7059 0 51.9685 0 51.0588C0 50.1492 0.844882 49.4118 1.8871 49.4118C2.92931 49.4118 3.77419 50.1492 3.77419 51.0588Z" fill="url(#paint55_linear_8_558)" fill-opacity="0.49"/>
<path d="M15.0968 51.0588C15.0968 51.9685 14.2519 52.7059 13.2097 52.7059C12.1675 52.7059 11.3226 51.9685 11.3226 51.0588C11.3226 50.1492 12.1675 49.4118 13.2097 49.4118C14.2519 49.4118 15.0968 50.1492 15.0968 51.0588Z" fill="url(#paint56_linear_8_558)" fill-opacity="0.49"/>
<path d="M26.4194 51.0588C26.4194 51.9685 25.5745 52.7059 24.5323 52.7059C23.49 52.7059 22.6452 51.9685 22.6452 51.0588C22.6452 50.1492 23.49 49.4118 24.5323 49.4118C25.5745 49.4118 26.4194 50.1492 26.4194 51.0588Z" fill="url(#paint57_linear_8_558)" fill-opacity="0.49"/>
<path d="M37.7419 51.0588C37.7419 51.9685 36.897 52.7059 35.8548 52.7059C34.8126 52.7059 33.9677 51.9685 33.9677 51.0588C33.9677 50.1492 34.8126 49.4118 35.8548 49.4118C36.897 49.4118 37.7419 50.1492 37.7419 51.0588Z" fill="url(#paint58_linear_8_558)" fill-opacity="0.49"/>
<path d="M49.0645 51.0588C49.0645 51.9685 48.2196 52.7059 47.1774 52.7059C46.1352 52.7059 45.2903 51.9685 45.2903 51.0588C45.2903 50.1492 46.1352 49.4118 47.1774 49.4118C48.2196 49.4118 49.0645 50.1492 49.0645 51.0588Z" fill="url(#paint59_linear_8_558)" fill-opacity="0.49"/>
<path d="M60.3871 51.0588C60.3871 51.9685 59.5422 52.7059 58.5 52.7059C57.4578 52.7059 56.6129 51.9685 56.6129 51.0588C56.6129 50.1492 57.4578 49.4118 58.5 49.4118C59.5422 49.4118 60.3871 50.1492 60.3871 51.0588Z" fill="url(#paint60_linear_8_558)" fill-opacity="0.49"/>
<path d="M71.7097 51.0588C71.7097 51.9685 70.8648 52.7059 69.8226 52.7059C68.7804 52.7059 67.9355 51.9685 67.9355 51.0588C67.9355 50.1492 68.7804 49.4118 69.8226 49.4118C70.8648 49.4118 71.7097 50.1492 71.7097 51.0588Z" fill="url(#paint61_linear_8_558)" fill-opacity="0.49"/>
<path d="M83.0322 51.0588C83.0322 51.9685 82.1874 52.7059 81.1452 52.7059C80.1029 52.7059 79.2581 51.9685 79.2581 51.0588C79.2581 50.1492 80.1029 49.4118 81.1452 49.4118C82.1874 49.4118 83.0322 50.1492 83.0322 51.0588Z" fill="url(#paint62_linear_8_558)" fill-opacity="0.49"/>
<path d="M94.3548 51.0588C94.3548 51.9685 93.5099 52.7059 92.4677 52.7059C91.4255 52.7059 90.5806 51.9685 90.5806 51.0588C90.5806 50.1492 91.4255 49.4118 92.4677 49.4118C93.5099 49.4118 94.3548 50.1492 94.3548 51.0588Z" fill="url(#paint63_linear_8_558)" fill-opacity="0.49"/>
<path d="M105.677 51.0588C105.677 51.9685 104.833 52.7059 103.79 52.7059C102.748 52.7059 101.903 51.9685 101.903 51.0588C101.903 50.1492 102.748 49.4118 103.79 49.4118C104.833 49.4118 105.677 50.1492 105.677 51.0588Z" fill="url(#paint64_linear_8_558)" fill-opacity="0.49"/>
<path d="M117 51.0588C117 51.9685 116.155 52.7059 115.113 52.7059C114.071 52.7059 113.226 51.9685 113.226 51.0588C113.226 50.1492 114.071 49.4118 115.113 49.4118C116.155 49.4118 117 50.1492 117 51.0588Z" fill="url(#paint65_linear_8_558)" fill-opacity="0.49"/>
<path d="M3.77419 60.9412C3.77419 61.8508 2.92931 62.5882 1.8871 62.5882C0.844882 62.5882 0 61.8508 0 60.9412C0 60.0315 0.844882 59.2941 1.8871 59.2941C2.92931 59.2941 3.77419 60.0315 3.77419 60.9412Z" fill="url(#paint66_linear_8_558)" fill-opacity="0.49"/>
<path d="M15.0968 60.9412C15.0968 61.8508 14.2519 62.5882 13.2097 62.5882C12.1675 62.5882 11.3226 61.8508 11.3226 60.9412C11.3226 60.0315 12.1675 59.2941 13.2097 59.2941C14.2519 59.2941 15.0968 60.0315 15.0968 60.9412Z" fill="url(#paint67_linear_8_558)" fill-opacity="0.49"/>
<path d="M26.4194 60.9412C26.4194 61.8508 25.5745 62.5882 24.5323 62.5882C23.49 62.5882 22.6452 61.8508 22.6452 60.9412C22.6452 60.0315 23.49 59.2941 24.5323 59.2941C25.5745 59.2941 26.4194 60.0315 26.4194 60.9412Z" fill="url(#paint68_linear_8_558)" fill-opacity="0.49"/>
<path d="M37.7419 60.9412C37.7419 61.8508 36.897 62.5882 35.8548 62.5882C34.8126 62.5882 33.9677 61.8508 33.9677 60.9412C33.9677 60.0315 34.8126 59.2941 35.8548 59.2941C36.897 59.2941 37.7419 60.0315 37.7419 60.9412Z" fill="url(#paint69_linear_8_558)" fill-opacity="0.49"/>
<path d="M49.0645 60.9412C49.0645 61.8508 48.2196 62.5882 47.1774 62.5882C46.1352 62.5882 45.2903 61.8508 45.2903 60.9412C45.2903 60.0315 46.1352 59.2941 47.1774 59.2941C48.2196 59.2941 49.0645 60.0315 49.0645 60.9412Z" fill="url(#paint70_linear_8_558)" fill-opacity="0.49"/>
<path d="M60.3871 60.9412C60.3871 61.8508 59.5422 62.5882 58.5 62.5882C57.4578 62.5882 56.6129 61.8508 56.6129 60.9412C56.6129 60.0315 57.4578 59.2941 58.5 59.2941C59.5422 59.2941 60.3871 60.0315 60.3871 60.9412Z" fill="url(#paint71_linear_8_558)" fill-opacity="0.49"/>
<path d="M71.7097 60.9412C71.7097 61.8508 70.8648 62.5882 69.8226 62.5882C68.7804 62.5882 67.9355 61.8508 67.9355 60.9412C67.9355 60.0315 68.7804 59.2941 69.8226 59.2941C70.8648 59.2941 71.7097 60.0315 71.7097 60.9412Z" fill="url(#paint72_linear_8_558)" fill-opacity="0.49"/>
<path d="M83.0322 60.9412C83.0322 61.8508 82.1874 62.5882 81.1452 62.5882C80.1029 62.5882 79.2581 61.8508 79.2581 60.9412C79.2581 60.0315 80.1029 59.2941 81.1452 59.2941C82.1874 59.2941 83.0322 60.0315 83.0322 60.9412Z" fill="url(#paint73_linear_8_558)" fill-opacity="0.49"/>
<path d="M94.3548 60.9412C94.3548 61.8508 93.5099 62.5882 92.4677 62.5882C91.4255 62.5882 90.5806 61.8508 90.5806 60.9412C90.5806 60.0315 91.4255 59.2941 92.4677 59.2941C93.5099 59.2941 94.3548 60.0315 94.3548 60.9412Z" fill="url(#paint74_linear_8_558)" fill-opacity="0.49"/>
<path d="M105.677 60.9412C105.677 61.8508 104.833 62.5882 103.79 62.5882C102.748 62.5882 101.903 61.8508 101.903 60.9412C101.903 60.0315 102.748 59.2941 103.79 59.2941C104.833 59.2941 105.677 60.0315 105.677 60.9412Z" fill="url(#paint75_linear_8_558)" fill-opacity="0.49"/>
<path d="M117 60.9412C117 61.8508 116.155 62.5882 115.113 62.5882C114.071 62.5882 113.226 61.8508 113.226 60.9412C113.226 60.0315 114.071 59.2941 115.113 59.2941C116.155 59.2941 117 60.0315 117 60.9412Z" fill="url(#paint76_linear_8_558)" fill-opacity="0.49"/>
<path d="M3.77419 70.8235C3.77419 71.7332 2.92931 72.4706 1.8871 72.4706C0.844882 72.4706 0 71.7332 0 70.8235C0 69.9139 0.844882 69.1765 1.8871 69.1765C2.92931 69.1765 3.77419 69.9139 3.77419 70.8235Z" fill="url(#paint77_linear_8_558)" fill-opacity="0.49"/>
<path d="M15.0968 70.8235C15.0968 71.7332 14.2519 72.4706 13.2097 72.4706C12.1675 72.4706 11.3226 71.7332 11.3226 70.8235C11.3226 69.9139 12.1675 69.1765 13.2097 69.1765C14.2519 69.1765 15.0968 69.9139 15.0968 70.8235Z" fill="url(#paint78_linear_8_558)" fill-opacity="0.49"/>
<path d="M26.4194 70.8235C26.4194 71.7332 25.5745 72.4706 24.5323 72.4706C23.49 72.4706 22.6452 71.7332 22.6452 70.8235C22.6452 69.9139 23.49 69.1765 24.5323 69.1765C25.5745 69.1765 26.4194 69.9139 26.4194 70.8235Z" fill="url(#paint79_linear_8_558)" fill-opacity="0.49"/>
<path d="M37.7419 70.8235C37.7419 71.7332 36.897 72.4706 35.8548 72.4706C34.8126 72.4706 33.9677 71.7332 33.9677 70.8235C33.9677 69.9139 34.8126 69.1765 35.8548 69.1765C36.897 69.1765 37.7419 69.9139 37.7419 70.8235Z" fill="url(#paint80_linear_8_558)" fill-opacity="0.49"/>
<path d="M49.0645 70.8235C49.0645 71.7332 48.2196 72.4706 47.1774 72.4706C46.1352 72.4706 45.2903 71.7332 45.2903 70.8235C45.2903 69.9139 46.1352 69.1765 47.1774 69.1765C48.2196 69.1765 49.0645 69.9139 49.0645 70.8235Z" fill="url(#paint81_linear_8_558)" fill-opacity="0.49"/>
<path d="M60.3871 70.8235C60.3871 71.7332 59.5422 72.4706 58.5 72.4706C57.4578 72.4706 56.6129 71.7332 56.6129 70.8235C56.6129 69.9139 57.4578 69.1765 58.5 69.1765C59.5422 69.1765 60.3871 69.9139 60.3871 70.8235Z" fill="url(#paint82_linear_8_558)" fill-opacity="0.49"/>
<path d="M71.7097 70.8235C71.7097 71.7332 70.8648 72.4706 69.8226 72.4706C68.7804 72.4706 67.9355 71.7332 67.9355 70.8235C67.9355 69.9139 68.7804 69.1765 69.8226 69.1765C70.8648 69.1765 71.7097 69.9139 71.7097 70.8235Z" fill="url(#paint83_linear_8_558)" fill-opacity="0.49"/>
<path d="M83.0322 70.8235C83.0322 71.7332 82.1874 72.4706 81.1452 72.4706C80.1029 72.4706 79.2581 71.7332 79.2581 70.8235C79.2581 69.9139 80.1029 69.1765 81.1452 69.1765C82.1874 69.1765 83.0322 69.9139 83.0322 70.8235Z" fill="url(#paint84_linear_8_558)" fill-opacity="0.49"/>
<path d="M94.3548 70.8235C94.3548 71.7332 93.5099 72.4706 92.4677 72.4706C91.4255 72.4706 90.5806 71.7332 90.5806 70.8235C90.5806 69.9139 91.4255 69.1765 92.4677 69.1765C93.5099 69.1765 94.3548 69.9139 94.3548 70.8235Z" fill="url(#paint85_linear_8_558)" fill-opacity="0.49"/>
<path d="M105.677 70.8235C105.677 71.7332 104.833 72.4706 103.79 72.4706C102.748 72.4706 101.903 71.7332 101.903 70.8235C101.903 69.9139 102.748 69.1765 103.79 69.1765C104.833 69.1765 105.677 69.9139 105.677 70.8235Z" fill="url(#paint86_linear_8_558)" fill-opacity="0.49"/>
<path d="M117 70.8235C117 71.7332 116.155 72.4706 115.113 72.4706C114.071 72.4706 113.226 71.7332 113.226 70.8235C113.226 69.9139 114.071 69.1765 115.113 69.1765C116.155 69.1765 117 69.9139 117 70.8235Z" fill="url(#paint87_linear_8_558)" fill-opacity="0.49"/>
<path d="M3.77419 80.7059C3.77419 81.6155 2.92931 82.3529 1.8871 82.3529C0.844882 82.3529 0 81.6155 0 80.7059C0 79.7962 0.844882 79.0588 1.8871 79.0588C2.92931 79.0588 3.77419 79.7962 3.77419 80.7059Z" fill="url(#paint88_linear_8_558)" fill-opacity="0.49"/>
<path d="M15.0968 80.7059C15.0968 81.6155 14.2519 82.3529 13.2097 82.3529C12.1675 82.3529 11.3226 81.6155 11.3226 80.7059C11.3226 79.7962 12.1675 79.0588 13.2097 79.0588C14.2519 79.0588 15.0968 79.7962 15.0968 80.7059Z" fill="url(#paint89_linear_8_558)" fill-opacity="0.49"/>
<path d="M26.4194 80.7059C26.4194 81.6155 25.5745 82.3529 24.5323 82.3529C23.49 82.3529 22.6452 81.6155 22.6452 80.7059C22.6452 79.7962 23.49 79.0588 24.5323 79.0588C25.5745 79.0588 26.4194 79.7962 26.4194 80.7059Z" fill="url(#paint90_linear_8_558)" fill-opacity="0.49"/>
<path d="M37.7419 80.7059C37.7419 81.6155 36.897 82.3529 35.8548 82.3529C34.8126 82.3529 33.9677 81.6155 33.9677 80.7059C33.9677 79.7962 34.8126 79.0588 35.8548 79.0588C36.897 79.0588 37.7419 79.7962 37.7419 80.7059Z" fill="url(#paint91_linear_8_558)" fill-opacity="0.49"/>
<path d="M49.0645 80.7059C49.0645 81.6155 48.2196 82.3529 47.1774 82.3529C46.1352 82.3529 45.2903 81.6155 45.2903 80.7059C45.2903 79.7962 46.1352 79.0588 47.1774 79.0588C48.2196 79.0588 49.0645 79.7962 49.0645 80.7059Z" fill="url(#paint92_linear_8_558)" fill-opacity="0.49"/>
<path d="M60.3871 80.7059C60.3871 81.6155 59.5422 82.3529 58.5 82.3529C57.4578 82.3529 56.6129 81.6155 56.6129 80.7059C56.6129 79.7962 57.4578 79.0588 58.5 79.0588C59.5422 79.0588 60.3871 79.7962 60.3871 80.7059Z" fill="url(#paint93_linear_8_558)" fill-opacity="0.49"/>
<path d="M71.7097 80.7059C71.7097 81.6155 70.8648 82.3529 69.8226 82.3529C68.7804 82.3529 67.9355 81.6155 67.9355 80.7059C67.9355 79.7962 68.7804 79.0588 69.8226 79.0588C70.8648 79.0588 71.7097 79.7962 71.7097 80.7059Z" fill="url(#paint94_linear_8_558)" fill-opacity="0.49"/>
<path d="M83.0322 80.7059C83.0322 81.6155 82.1874 82.3529 81.1452 82.3529C80.1029 82.3529 79.2581 81.6155 79.2581 80.7059C79.2581 79.7962 80.1029 79.0588 81.1452 79.0588C82.1874 79.0588 83.0322 79.7962 83.0322 80.7059Z" fill="url(#paint95_linear_8_558)" fill-opacity="0.49"/>
<path d="M94.3548 80.7059C94.3548 81.6155 93.5099 82.3529 92.4677 82.3529C91.4255 82.3529 90.5806 81.6155 90.5806 80.7059C90.5806 79.7962 91.4255 79.0588 92.4677 79.0588C93.5099 79.0588 94.3548 79.7962 94.3548 80.7059Z" fill="url(#paint96_linear_8_558)" fill-opacity="0.49"/>
<path d="M105.677 80.7059C105.677 81.6155 104.833 82.3529 103.79 82.3529C102.748 82.3529 101.903 81.6155 101.903 80.7059C101.903 79.7962 102.748 79.0588 103.79 79.0588C104.833 79.0588 105.677 79.7962 105.677 80.7059Z" fill="url(#paint97_linear_8_558)" fill-opacity="0.49"/>
<path d="M117 80.7059C117 81.6155 116.155 82.3529 115.113 82.3529C114.071 82.3529 113.226 81.6155 113.226 80.7059C113.226 79.7962 114.071 79.0588 115.113 79.0588C116.155 79.0588 117 79.7962 117 80.7059Z" fill="url(#paint98_linear_8_558)" fill-opacity="0.49"/>
<path d="M3.77419 90.5882C3.77419 91.4979 2.92931 92.2353 1.8871 92.2353C0.844882 92.2353 0 91.4979 0 90.5882C0 89.6786 0.844882 88.9412 1.8871 88.9412C2.92931 88.9412 3.77419 89.6786 3.77419 90.5882Z" fill="url(#paint99_linear_8_558)" fill-opacity="0.49"/>
<path d="M15.0968 90.5882C15.0968 91.4979 14.2519 92.2353 13.2097 92.2353C12.1675 92.2353 11.3226 91.4979 11.3226 90.5882C11.3226 89.6786 12.1675 88.9412 13.2097 88.9412C14.2519 88.9412 15.0968 89.6786 15.0968 90.5882Z" fill="url(#paint100_linear_8_558)" fill-opacity="0.49"/>
<path d="M26.4194 90.5882C26.4194 91.4979 25.5745 92.2353 24.5323 92.2353C23.49 92.2353 22.6452 91.4979 22.6452 90.5882C22.6452 89.6786 23.49 88.9412 24.5323 88.9412C25.5745 88.9412 26.4194 89.6786 26.4194 90.5882Z" fill="url(#paint101_linear_8_558)" fill-opacity="0.49"/>
<path d="M37.7419 90.5882C37.7419 91.4979 36.897 92.2353 35.8548 92.2353C34.8126 92.2353 33.9677 91.4979 33.9677 90.5882C33.9677 89.6786 34.8126 88.9412 35.8548 88.9412C36.897 88.9412 37.7419 89.6786 37.7419 90.5882Z" fill="url(#paint102_linear_8_558)" fill-opacity="0.49"/>
<path d="M49.0645 90.5882C49.0645 91.4979 48.2196 92.2353 47.1774 92.2353C46.1352 92.2353 45.2903 91.4979 45.2903 90.5882C45.2903 89.6786 46.1352 88.9412 47.1774 88.9412C48.2196 88.9412 49.0645 89.6786 49.0645 90.5882Z" fill="url(#paint103_linear_8_558)" fill-opacity="0.49"/>
<path d="M60.3871 90.5882C60.3871 91.4979 59.5422 92.2353 58.5 92.2353C57.4578 92.2353 56.6129 91.4979 56.6129 90.5882C56.6129 89.6786 57.4578 88.9412 58.5 88.9412C59.5422 88.9412 60.3871 89.6786 60.3871 90.5882Z" fill="url(#paint104_linear_8_558)" fill-opacity="0.49"/>
<path d="M71.7097 90.5882C71.7097 91.4979 70.8648 92.2353 69.8226 92.2353C68.7804 92.2353 67.9355 91.4979 67.9355 90.5882C67.9355 89.6786 68.7804 88.9412 69.8226 88.9412C70.8648 88.9412 71.7097 89.6786 71.7097 90.5882Z" fill="url(#paint105_linear_8_558)" fill-opacity="0.49"/>
<path d="M83.0322 90.5882C83.0322 91.4979 82.1874 92.2353 81.1452 92.2353C80.1029 92.2353 79.2581 91.4979 79.2581 90.5882C79.2581 89.6786 80.1029 88.9412 81.1452 88.9412C82.1874 88.9412 83.0322 89.6786 83.0322 90.5882Z" fill="url(#paint106_linear_8_558)" fill-opacity="0.49"/>
<path d="M94.3548 90.5882C94.3548 91.4979 93.5099 92.2353 92.4677 92.2353C91.4255 92.2353 90.5806 91.4979 90.5806 90.5882C90.5806 89.6786 91.4255 88.9412 92.4677 88.9412C93.5099 88.9412 94.3548 89.6786 94.3548 90.5882Z" fill="url(#paint107_linear_8_558)" fill-opacity="0.49"/>
<path d="M105.677 90.5882C105.677 91.4979 104.833 92.2353 103.79 92.2353C102.748 92.2353 101.903 91.4979 101.903 90.5882C101.903 89.6786 102.748 88.9412 103.79 88.9412C104.833 88.9412 105.677 89.6786 105.677 90.5882Z" fill="url(#paint108_linear_8_558)" fill-opacity="0.49"/>
<path d="M117 90.5882C117 91.4979 116.155 92.2353 115.113 92.2353C114.071 92.2353 113.226 91.4979 113.226 90.5882C113.226 89.6786 114.071 88.9412 115.113 88.9412C116.155 88.9412 117 89.6786 117 90.5882Z" fill="url(#paint109_linear_8_558)" fill-opacity="0.49"/>
<path d="M3.77419 100.471C3.77419 101.38 2.92931 102.118 1.8871 102.118C0.844882 102.118 0 101.38 0 100.471C0 99.5609 0.844882 98.8235 1.8871 98.8235C2.92931 98.8235 3.77419 99.5609 3.77419 100.471Z" fill="url(#paint110_linear_8_558)" fill-opacity="0.49"/>
<path d="M15.0968 100.471C15.0968 101.38 14.2519 102.118 13.2097 102.118C12.1675 102.118 11.3226 101.38 11.3226 100.471C11.3226 99.5609 12.1675 98.8235 13.2097 98.8235C14.2519 98.8235 15.0968 99.5609 15.0968 100.471Z" fill="url(#paint111_linear_8_558)" fill-opacity="0.49"/>
<path d="M26.4194 100.471C26.4194 101.38 25.5745 102.118 24.5323 102.118C23.49 102.118 22.6452 101.38 22.6452 100.471C22.6452 99.5609 23.49 98.8235 24.5323 98.8235C25.5745 98.8235 26.4194 99.5609 26.4194 100.471Z" fill="url(#paint112_linear_8_558)" fill-opacity="0.49"/>
<path d="M37.7419 100.471C37.7419 101.38 36.897 102.118 35.8548 102.118C34.8126 102.118 33.9677 101.38 33.9677 100.471C33.9677 99.5609 34.8126 98.8235 35.8548 98.8235C36.897 98.8235 37.7419 99.5609 37.7419 100.471Z" fill="url(#paint113_linear_8_558)" fill-opacity="0.49"/>
<path d="M49.0645 100.471C49.0645 101.38 48.2196 102.118 47.1774 102.118C46.1352 102.118 45.2903 101.38 45.2903 100.471C45.2903 99.5609 46.1352 98.8235 47.1774 98.8235C48.2196 98.8235 49.0645 99.5609 49.0645 100.471Z" fill="url(#paint114_linear_8_558)" fill-opacity="0.49"/>
<path d="M60.3871 100.471C60.3871 101.38 59.5422 102.118 58.5 102.118C57.4578 102.118 56.6129 101.38 56.6129 100.471C56.6129 99.5609 57.4578 98.8235 58.5 98.8235C59.5422 98.8235 60.3871 99.5609 60.3871 100.471Z" fill="url(#paint115_linear_8_558)" fill-opacity="0.49"/>
<path d="M71.7097 100.471C71.7097 101.38 70.8648 102.118 69.8226 102.118C68.7804 102.118 67.9355 101.38 67.9355 100.471C67.9355 99.5609 68.7804 98.8235 69.8226 98.8235C70.8648 98.8235 71.7097 99.5609 71.7097 100.471Z" fill="url(#paint116_linear_8_558)" fill-opacity="0.49"/>
<path d="M83.0322 100.471C83.0322 101.38 82.1874 102.118 81.1452 102.118C80.1029 102.118 79.2581 101.38 79.2581 100.471C79.2581 99.5609 80.1029 98.8235 81.1452 98.8235C82.1874 98.8235 83.0322 99.5609 83.0322 100.471Z" fill="url(#paint117_linear_8_558)" fill-opacity="0.49"/>
<path d="M94.3548 100.471C94.3548 101.38 93.5099 102.118 92.4677 102.118C91.4255 102.118 90.5806 101.38 90.5806 100.471C90.5806 99.5609 91.4255 98.8235 92.4677 98.8235C93.5099 98.8235 94.3548 99.5609 94.3548 100.471Z" fill="url(#paint118_linear_8_558)" fill-opacity="0.49"/>
<path d="M105.677 100.471C105.677 101.38 104.833 102.118 103.79 102.118C102.748 102.118 101.903 101.38 101.903 100.471C101.903 99.5609 102.748 98.8235 103.79 98.8235C104.833 98.8235 105.677 99.5609 105.677 100.471Z" fill="url(#paint119_linear_8_558)" fill-opacity="0.49"/>
<path d="M117 100.471C117 101.38 116.155 102.118 115.113 102.118C114.071 102.118 113.226 101.38 113.226 100.471C113.226 99.5609 114.071 98.8235 115.113 98.8235C116.155 98.8235 117 99.5609 117 100.471Z" fill="url(#paint120_linear_8_558)" fill-opacity="0.49"/>
<path d="M3.77419 110.353C3.77419 111.263 2.92931 112 1.8871 112C0.844882 112 0 111.263 0 110.353C0 109.443 0.844882 108.706 1.8871 108.706C2.92931 108.706 3.77419 109.443 3.77419 110.353Z" fill="url(#paint121_linear_8_558)" fill-opacity="0.49"/>
<path d="M15.0968 110.353C15.0968 111.263 14.2519 112 13.2097 112C12.1675 112 11.3226 111.263 11.3226 110.353C11.3226 109.443 12.1675 108.706 13.2097 108.706C14.2519 108.706 15.0968 109.443 15.0968 110.353Z" fill="url(#paint122_linear_8_558)" fill-opacity="0.49"/>
<path d="M26.4194 110.353C26.4194 111.263 25.5745 112 24.5323 112C23.49 112 22.6452 111.263 22.6452 110.353C22.6452 109.443 23.49 108.706 24.5323 108.706C25.5745 108.706 26.4194 109.443 26.4194 110.353Z" fill="url(#paint123_linear_8_558)" fill-opacity="0.49"/>
<path d="M37.7419 110.353C37.7419 111.263 36.897 112 35.8548 112C34.8126 112 33.9677 111.263 33.9677 110.353C33.9677 109.443 34.8126 108.706 35.8548 108.706C36.897 108.706 37.7419 109.443 37.7419 110.353Z" fill="url(#paint124_linear_8_558)" fill-opacity="0.49"/>
<path d="M49.0645 110.353C49.0645 111.263 48.2196 112 47.1774 112C46.1352 112 45.2903 111.263 45.2903 110.353C45.2903 109.443 46.1352 108.706 47.1774 108.706C48.2196 108.706 49.0645 109.443 49.0645 110.353Z" fill="url(#paint125_linear_8_558)" fill-opacity="0.49"/>
<path d="M60.3871 110.353C60.3871 111.263 59.5422 112 58.5 112C57.4578 112 56.6129 111.263 56.6129 110.353C56.6129 109.443 57.4578 108.706 58.5 108.706C59.5422 108.706 60.3871 109.443 60.3871 110.353Z" fill="url(#paint126_linear_8_558)" fill-opacity="0.49"/>
<path d="M71.7097 110.353C71.7097 111.263 70.8648 112 69.8226 112C68.7804 112 67.9355 111.263 67.9355 110.353C67.9355 109.443 68.7804 108.706 69.8226 108.706C70.8648 108.706 71.7097 109.443 71.7097 110.353Z" fill="url(#paint127_linear_8_558)" fill-opacity="0.49"/>
<path d="M83.0322 110.353C83.0322 111.263 82.1874 112 81.1452 112C80.1029 112 79.2581 111.263 79.2581 110.353C79.2581 109.443 80.1029 108.706 81.1452 108.706C82.1874 108.706 83.0322 109.443 83.0322 110.353Z" fill="url(#paint128_linear_8_558)" fill-opacity="0.49"/>
<path d="M94.3548 110.353C94.3548 111.263 93.5099 112 92.4677 112C91.4255 112 90.5806 111.263 90.5806 110.353C90.5806 109.443 91.4255 108.706 92.4677 108.706C93.5099 108.706 94.3548 109.443 94.3548 110.353Z" fill="url(#paint129_linear_8_558)" fill-opacity="0.49"/>
<path d="M105.677 110.353C105.677 111.263 104.833 112 103.79 112C102.748 112 101.903 111.263 101.903 110.353C101.903 109.443 102.748 108.706 103.79 108.706C104.833 108.706 105.677 109.443 105.677 110.353Z" fill="url(#paint130_linear_8_558)" fill-opacity="0.49"/>
<path d="M117 110.353C117 111.263 116.155 112 115.113 112C114.071 112 113.226 111.263 113.226 110.353C113.226 109.443 114.071 108.706 115.113 108.706C116.155 108.706 117 109.443 117 110.353Z" fill="url(#paint131_linear_8_558)" fill-opacity="0.49"/>
<defs>
<linearGradient id="paint0_linear_8_558" x1="58.5" y1="0" x2="58.5" y2="112" gradientUnits="userSpaceOnUse">
<stop stop-color="#3BB3C1"/>
<stop offset="1" stop-color="#1B8895"/>
</linearGradient>
<linearGradient id="paint1_linear_8_558" x1="58.5" y1="0" x2="58.5" y2="112" gradientUnits="userSpaceOnUse">
<stop stop-color="#3BB3C1"/>
<stop offset="1" stop-color="#1B8895"/>
</linearGradient>
<linearGradient id="paint2_linear_8_558" x1="58.5" y1="0" x2="58.5" y2="112" gradientUnits="userSpaceOnUse">
<stop stop-color="#3BB3C1"/>
<stop offset="1" stop-color="#1B8895"/>
</linearGradient>
<linearGradient id="paint3_linear_8_558" x1="58.5" y1="0" x2="58.5" y2="112" gradientUnits="userSpaceOnUse">
<stop stop-color="#3BB3C1"/>
<stop offset="1" stop-color="#1B8895"/>
</linearGradient>
<linearGradient id="paint4_linear_8_558" x1="58.5" y1="0" x2="58.5" y2="112" gradientUnits="userSpaceOnUse">
<stop stop-color="#3BB3C1"/>
<stop offset="1" stop-color="#1B8895"/>
</linearGradient>
<linearGradient id="paint5_linear_8_558" x1="58.5" y1="0" x2="58.5" y2="112" gradientUnits="userSpaceOnUse">
<stop stop-color="#3BB3C1"/>
<stop offset="1" stop-color="#1B8895"/>
</linearGradient>
<linearGradient id="paint6_linear_8_558" x1="58.5" y1="0" x2="58.5" y2="112" gradientUnits="userSpaceOnUse">
<stop stop-color="#3BB3C1"/>
<stop offset="1" stop-color="#1B8895"/>
</linearGradient>
<linearGradient id="paint7_linear_8_558" x1="58.5" y1="0" x2="58.5" y2="112" gradientUnits="userSpaceOnUse">
<stop stop-color="#3BB3C1"/>
<stop offset="1" stop-color="#1B8895"/>
</linearGradient>
<linearGradient id="paint8_linear_8_558" x1="58.5" y1="0" x2="58.5" y2="112" gradientUnits="userSpaceOnUse">
<stop stop-color="#3BB3C1"/>
<stop offset="1" stop-color="#1B8895"/>
</linearGradient>
<linearGradient id="paint9_linear_8_558" x1="58.5" y1="0" x2="58.5" y2="112" gradientUnits="userSpaceOnUse">
<stop stop-color="#3BB3C1"/>
<stop offset="1" stop-color="#1B8895"/>
</linearGradient>
<linearGradient id="paint10_linear_8_558" x1="58.5" y1="0" x2="58.5" y2="112" gradientUnits="userSpaceOnUse">
<stop stop-color="#3BB3C1"/>
<stop offset="1" stop-color="#1B8895"/>
</linearGradient>
<linearGradient id="paint11_linear_8_558" x1="58.5" y1="0" x2="58.5" y2="112" gradientUnits="userSpaceOnUse">
<stop stop-color="#3BB3C1"/>
<stop offset="1" stop-color="#1B8895"/>
</linearGradient>
<linearGradient id="paint12_linear_8_558" x1="58.5" y1="0" x2="58.5" y2="112" gradientUnits="userSpaceOnUse">
<stop stop-color="#3BB3C1"/>
<stop offset="1" stop-color="#1B8895"/>
</linearGradient>
<linearGradient id="paint13_linear_8_558" x1="58.5" y1="0" x2="58.5" y2="112" gradientUnits="userSpaceOnUse">
<stop stop-color="#3BB3C1"/>
<stop offset="1" stop-color="#1B8895"/>
</linearGradient>
<linearGradient id="paint14_linear_8_558" x1="58.5" y1="0" x2="58.5" y2="112" gradientUnits="userSpaceOnUse">
<stop stop-color="#3BB3C1"/>
<stop offset="1" stop-color="#1B8895"/>
</linearGradient>
<linearGradient id="paint15_linear_8_558" x1="58.5" y1="0" x2="58.5" y2="112" gradientUnits="userSpaceOnUse">
<stop stop-color="#3BB3C1"/>
<stop offset="1" stop-color="#1B8895"/>
</linearGradient>
<linearGradient id="paint16_linear_8_558" x1="58.5" y1="0" x2="58.5" y2="112" gradientUnits="userSpaceOnUse">
<stop stop-color="#3BB3C1"/>
<stop offset="1" stop-color="#1B8895"/>
</linearGradient>
<linearGradient id="paint17_linear_8_558" x1="58.5" y1="0" x2="58.5" y2="112" gradientUnits="userSpaceOnUse">
<stop stop-color="#3BB3C1"/>
<stop offset="1" stop-color="#1B8895"/>
</linearGradient>
<linearGradient id="paint18_linear_8_558" x1="58.5" y1="0" x2="58.5" y2="112" gradientUnits="userSpaceOnUse">
<stop stop-color="#3BB3C1"/>
<stop offset="1" stop-color="#1B8895"/>
</linearGradient>
<linearGradient id="paint19_linear_8_558" x1="58.5" y1="0" x2="58.5" y2="112" gradientUnits="userSpaceOnUse">
<stop stop-color="#3BB3C1"/>
<stop offset="1" stop-color="#1B8895"/>
</linearGradient>
<linearGradient id="paint20_linear_8_558" x1="58.5" y1="0" x2="58.5" y2="112" gradientUnits="userSpaceOnUse">
<stop stop-color="#3BB3C1"/>
<stop offset="1" stop-color="#1B8895"/>
</linearGradient>
<linearGradient id="paint21_linear_8_558" x1="58.5" y1="0" x2="58.5" y2="112" gradientUnits="userSpaceOnUse">
<stop stop-color="#3BB3C1"/>
<stop offset="1" stop-color="#1B8895"/>
</linearGradient>
<linearGradient id="paint22_linear_8_558" x1="58.5" y1="0" x2="58.5" y2="112" gradientUnits="userSpaceOnUse">
<stop stop-color="#3BB3C1"/>
<stop offset="1" stop-color="#1B8895"/>
</linearGradient>
<linearGradient id="paint23_linear_8_558" x1="58.5" y1="0" x2="58.5" y2="112" gradientUnits="userSpaceOnUse">
<stop stop-color="#3BB3C1"/>
<stop offset="1" stop-color="#1B8895"/>
</linearGradient>
<linearGradient id="paint24_linear_8_558" x1="58.5" y1="0" x2="58.5" y2="112" gradientUnits="userSpaceOnUse">
<stop stop-color="#3BB3C1"/>
<stop offset="1" stop-color="#1B8895"/>
</linearGradient>
<linearGradient id="paint25_linear_8_558" x1="58.5" y1="0" x2="58.5" y2="112" gradientUnits="userSpaceOnUse">
<stop stop-color="#3BB3C1"/>
<stop offset="1" stop-color="#1B8895"/>
</linearGradient>
<linearGradient id="paint26_linear_8_558" x1="58.5" y1="0" x2="58.5" y2="112" gradientUnits="userSpaceOnUse">
<stop stop-color="#3BB3C1"/>
<stop offset="1" stop-color="#1B8895"/>
</linearGradient>
<linearGradient id="paint27_linear_8_558" x1="58.5" y1="0" x2="58.5" y2="112" gradientUnits="userSpaceOnUse">
<stop stop-color="#3BB3C1"/>
<stop offset="1" stop-color="#1B8895"/>
</linearGradient>
<linearGradient id="paint28_linear_8_558" x1="58.5" y1="0" x2="58.5" y2="112" gradientUnits="userSpaceOnUse">
<stop stop-color="#3BB3C1"/>
<stop offset="1" stop-color="#1B8895"/>
</linearGradient>
<linearGradient id="paint29_linear_8_558" x1="58.5" y1="0" x2="58.5" y2="112" gradientUnits="userSpaceOnUse">
<stop stop-color="#3BB3C1"/>
<stop offset="1" stop-color="#1B8895"/>
</linearGradient>
<linearGradient id="paint30_linear_8_558" x1="58.5" y1="0" x2="58.5" y2="112" gradientUnits="userSpaceOnUse">
<stop stop-color="#3BB3C1"/>
<stop offset="1" stop-color="#1B8895"/>
</linearGradient>
<linearGradient id="paint31_linear_8_558" x1="58.5" y1="0" x2="58.5" y2="112" gradientUnits="userSpaceOnUse">
<stop stop-color="#3BB3C1"/>
<stop offset="1" stop-color="#1B8895"/>
</linearGradient>
<linearGradient id="paint32_linear_8_558" x1="58.5" y1="0" x2="58.5" y2="112" gradientUnits="userSpaceOnUse">
<stop stop-color="#3BB3C1"/>
<stop offset="1" stop-color="#1B8895"/>
</linearGradient>
<linearGradient id="paint33_linear_8_558" x1="58.5" y1="0" x2="58.5" y2="112" gradientUnits="userSpaceOnUse">
<stop stop-color="#3BB3C1"/>
<stop offset="1" stop-color="#1B8895"/>
</linearGradient>
<linearGradient id="paint34_linear_8_558" x1="58.5" y1="0" x2="58.5" y2="112" gradientUnits="userSpaceOnUse">
<stop stop-color="#3BB3C1"/>
<stop offset="1" stop-color="#1B8895"/>
</linearGradient>
<linearGradient id="paint35_linear_8_558" x1="58.5" y1="0" x2="58.5" y2="112" gradientUnits="userSpaceOnUse">
<stop stop-color="#3BB3C1"/>
<stop offset="1" stop-color="#1B8895"/>
</linearGradient>
<linearGradient id="paint36_linear_8_558" x1="58.5" y1="0" x2="58.5" y2="112" gradientUnits="userSpaceOnUse">
<stop stop-color="#3BB3C1"/>
<stop offset="1" stop-color="#1B8895"/>
</linearGradient>
<linearGradient id="paint37_linear_8_558" x1="58.5" y1="0" x2="58.5" y2="112" gradientUnits="userSpaceOnUse">
<stop stop-color="#3BB3C1"/>
<stop offset="1" stop-color="#1B8895"/>
</linearGradient>
<linearGradient id="paint38_linear_8_558" x1="58.5" y1="0" x2="58.5" y2="112" gradientUnits="userSpaceOnUse">
<stop stop-color="#3BB3C1"/>
<stop offset="1" stop-color="#1B8895"/>
</linearGradient>
<linearGradient id="paint39_linear_8_558" x1="58.5" y1="0" x2="58.5" y2="112" gradientUnits="userSpaceOnUse">
<stop stop-color="#3BB3C1"/>
<stop offset="1" stop-color="#1B8895"/>
</linearGradient>
<linearGradient id="paint40_linear_8_558" x1="58.5" y1="0" x2="58.5" y2="112" gradientUnits="userSpaceOnUse">
<stop stop-color="#3BB3C1"/>
<stop offset="1" stop-color="#1B8895"/>
</linearGradient>
<linearGradient id="paint41_linear_8_558" x1="58.5" y1="0" x2="58.5" y2="112" gradientUnits="userSpaceOnUse">
<stop stop-color="#3BB3C1"/>
<stop offset="1" stop-color="#1B8895"/>
</linearGradient>
<linearGradient id="paint42_linear_8_558" x1="58.5" y1="0" x2="58.5" y2="112" gradientUnits="userSpaceOnUse">
<stop stop-color="#3BB3C1"/>
<stop offset="1" stop-color="#1B8895"/>
</linearGradient>
<linearGradient id="paint43_linear_8_558" x1="58.5" y1="0" x2="58.5" y2="112" gradientUnits="userSpaceOnUse">
<stop stop-color="#3BB3C1"/>
<stop offset="1" stop-color="#1B8895"/>
</linearGradient>
<linearGradient id="paint44_linear_8_558" x1="58.5" y1="0" x2="58.5" y2="112" gradientUnits="userSpaceOnUse">
<stop stop-color="#3BB3C1"/>
<stop offset="1" stop-color="#1B8895"/>
</linearGradient>
<linearGradient id="paint45_linear_8_558" x1="58.5" y1="0" x2="58.5" y2="112" gradientUnits="userSpaceOnUse">
<stop stop-color="#3BB3C1"/>
<stop offset="1" stop-color="#1B8895"/>
</linearGradient>
<linearGradient id="paint46_linear_8_558" x1="58.5" y1="0" x2="58.5" y2="112" gradientUnits="userSpaceOnUse">
<stop stop-color="#3BB3C1"/>
<stop offset="1" stop-color="#1B8895"/>
</linearGradient>
<linearGradient id="paint47_linear_8_558" x1="58.5" y1="0" x2="58.5" y2="112" gradientUnits="userSpaceOnUse">
<stop stop-color="#3BB3C1"/>
<stop offset="1" stop-color="#1B8895"/>
</linearGradient>
<linearGradient id="paint48_linear_8_558" x1="58.5" y1="0" x2="58.5" y2="112" gradientUnits="userSpaceOnUse">
<stop stop-color="#3BB3C1"/>
<stop offset="1" stop-color="#1B8895"/>
</linearGradient>
<linearGradient id="paint49_linear_8_558" x1="58.5" y1="0" x2="58.5" y2="112" gradientUnits="userSpaceOnUse">
<stop stop-color="#3BB3C1"/>
<stop offset="1" stop-color="#1B8895"/>
</linearGradient>
<linearGradient id="paint50_linear_8_558" x1="58.5" y1="0" x2="58.5" y2="112" gradientUnits="userSpaceOnUse">
<stop stop-color="#3BB3C1"/>
<stop offset="1" stop-color="#1B8895"/>
</linearGradient>
<linearGradient id="paint51_linear_8_558" x1="58.5" y1="0" x2="58.5" y2="112" gradientUnits="userSpaceOnUse">
<stop stop-color="#3BB3C1"/>
<stop offset="1" stop-color="#1B8895"/>
</linearGradient>
<linearGradient id="paint52_linear_8_558" x1="58.5" y1="0" x2="58.5" y2="112" gradientUnits="userSpaceOnUse">
<stop stop-color="#3BB3C1"/>
<stop offset="1" stop-color="#1B8895"/>
</linearGradient>
<linearGradient id="paint53_linear_8_558" x1="58.5" y1="0" x2="58.5" y2="112" gradientUnits="userSpaceOnUse">
<stop stop-color="#3BB3C1"/>
<stop offset="1" stop-color="#1B8895"/>
</linearGradient>
<linearGradient id="paint54_linear_8_558" x1="58.5" y1="0" x2="58.5" y2="112" gradientUnits="userSpaceOnUse">
<stop stop-color="#3BB3C1"/>
<stop offset="1" stop-color="#1B8895"/>
</linearGradient>
<linearGradient id="paint55_linear_8_558" x1="58.5" y1="0" x2="58.5" y2="112" gradientUnits="userSpaceOnUse">
<stop stop-color="#3BB3C1"/>
<stop offset="1" stop-color="#1B8895"/>
</linearGradient>
<linearGradient id="paint56_linear_8_558" x1="58.5" y1="0" x2="58.5" y2="112" gradientUnits="userSpaceOnUse">
<stop stop-color="#3BB3C1"/>
<stop offset="1" stop-color="#1B8895"/>
</linearGradient>
<linearGradient id="paint57_linear_8_558" x1="58.5" y1="0" x2="58.5" y2="112" gradientUnits="userSpaceOnUse">
<stop stop-color="#3BB3C1"/>
<stop offset="1" stop-color="#1B8895"/>
</linearGradient>
<linearGradient id="paint58_linear_8_558" x1="58.5" y1="0" x2="58.5" y2="112" gradientUnits="userSpaceOnUse">
<stop stop-color="#3BB3C1"/>
<stop offset="1" stop-color="#1B8895"/>
</linearGradient>
<linearGradient id="paint59_linear_8_558" x1="58.5" y1="0" x2="58.5" y2="112" gradientUnits="userSpaceOnUse">
<stop stop-color="#3BB3C1"/>
<stop offset="1" stop-color="#1B8895"/>
</linearGradient>
<linearGradient id="paint60_linear_8_558" x1="58.5" y1="0" x2="58.5" y2="112" gradientUnits="userSpaceOnUse">
<stop stop-color="#3BB3C1"/>
<stop offset="1" stop-color="#1B8895"/>
</linearGradient>
<linearGradient id="paint61_linear_8_558" x1="58.5" y1="0" x2="58.5" y2="112" gradientUnits="userSpaceOnUse">
<stop stop-color="#3BB3C1"/>
<stop offset="1" stop-color="#1B8895"/>
</linearGradient>
<linearGradient id="paint62_linear_8_558" x1="58.5" y1="0" x2="58.5" y2="112" gradientUnits="userSpaceOnUse">
<stop stop-color="#3BB3C1"/>
<stop offset="1" stop-color="#1B8895"/>
</linearGradient>
<linearGradient id="paint63_linear_8_558" x1="58.5" y1="0" x2="58.5" y2="112" gradientUnits="userSpaceOnUse">
<stop stop-color="#3BB3C1"/>
<stop offset="1" stop-color="#1B8895"/>
</linearGradient>
<linearGradient id="paint64_linear_8_558" x1="58.5" y1="0" x2="58.5" y2="112" gradientUnits="userSpaceOnUse">
<stop stop-color="#3BB3C1"/>
<stop offset="1" stop-color="#1B8895"/>
</linearGradient>
<linearGradient id="paint65_linear_8_558" x1="58.5" y1="0" x2="58.5" y2="112" gradientUnits="userSpaceOnUse">
<stop stop-color="#3BB3C1"/>
<stop offset="1" stop-color="#1B8895"/>
</linearGradient>
<linearGradient id="paint66_linear_8_558" x1="58.5" y1="0" x2="58.5" y2="112" gradientUnits="userSpaceOnUse">
<stop stop-color="#3BB3C1"/>
<stop offset="1" stop-color="#1B8895"/>
</linearGradient>
<linearGradient id="paint67_linear_8_558" x1="58.5" y1="0" x2="58.5" y2="112" gradientUnits="userSpaceOnUse">
<stop stop-color="#3BB3C1"/>
<stop offset="1" stop-color="#1B8895"/>
</linearGradient>
<linearGradient id="paint68_linear_8_558" x1="58.5" y1="0" x2="58.5" y2="112" gradientUnits="userSpaceOnUse">
<stop stop-color="#3BB3C1"/>
<stop offset="1" stop-color="#1B8895"/>
</linearGradient>
<linearGradient id="paint69_linear_8_558" x1="58.5" y1="0" x2="58.5" y2="112" gradientUnits="userSpaceOnUse">
<stop stop-color="#3BB3C1"/>
<stop offset="1" stop-color="#1B8895"/>
</linearGradient>
<linearGradient id="paint70_linear_8_558" x1="58.5" y1="0" x2="58.5" y2="112" gradientUnits="userSpaceOnUse">
<stop stop-color="#3BB3C1"/>
<stop offset="1" stop-color="#1B8895"/>
</linearGradient>
<linearGradient id="paint71_linear_8_558" x1="58.5" y1="0" x2="58.5" y2="112" gradientUnits="userSpaceOnUse">
<stop stop-color="#3BB3C1"/>
<stop offset="1" stop-color="#1B8895"/>
</linearGradient>
<linearGradient id="paint72_linear_8_558" x1="58.5" y1="0" x2="58.5" y2="112" gradientUnits="userSpaceOnUse">
<stop stop-color="#3BB3C1"/>
<stop offset="1" stop-color="#1B8895"/>
</linearGradient>
<linearGradient id="paint73_linear_8_558" x1="58.5" y1="0" x2="58.5" y2="112" gradientUnits="userSpaceOnUse">
<stop stop-color="#3BB3C1"/>
<stop offset="1" stop-color="#1B8895"/>
</linearGradient>
<linearGradient id="paint74_linear_8_558" x1="58.5" y1="0" x2="58.5" y2="112" gradientUnits="userSpaceOnUse">
<stop stop-color="#3BB3C1"/>
<stop offset="1" stop-color="#1B8895"/>
</linearGradient>
<linearGradient id="paint75_linear_8_558" x1="58.5" y1="0" x2="58.5" y2="112" gradientUnits="userSpaceOnUse">
<stop stop-color="#3BB3C1"/>
<stop offset="1" stop-color="#1B8895"/>
</linearGradient>
<linearGradient id="paint76_linear_8_558" x1="58.5" y1="0" x2="58.5" y2="112" gradientUnits="userSpaceOnUse">
<stop stop-color="#3BB3C1"/>
<stop offset="1" stop-color="#1B8895"/>
</linearGradient>
<linearGradient id="paint77_linear_8_558" x1="58.5" y1="0" x2="58.5" y2="112" gradientUnits="userSpaceOnUse">
<stop stop-color="#3BB3C1"/>
<stop offset="1" stop-color="#1B8895"/>
</linearGradient>
<linearGradient id="paint78_linear_8_558" x1="58.5" y1="0" x2="58.5" y2="112" gradientUnits="userSpaceOnUse">
<stop stop-color="#3BB3C1"/>
<stop offset="1" stop-color="#1B8895"/>
</linearGradient>
<linearGradient id="paint79_linear_8_558" x1="58.5" y1="0" x2="58.5" y2="112" gradientUnits="userSpaceOnUse">
<stop stop-color="#3BB3C1"/>
<stop offset="1" stop-color="#1B8895"/>
</linearGradient>
<linearGradient id="paint80_linear_8_558" x1="58.5" y1="0" x2="58.5" y2="112" gradientUnits="userSpaceOnUse">
<stop stop-color="#3BB3C1"/>
<stop offset="1" stop-color="#1B8895"/>
</linearGradient>
<linearGradient id="paint81_linear_8_558" x1="58.5" y1="0" x2="58.5" y2="112" gradientUnits="userSpaceOnUse">
<stop stop-color="#3BB3C1"/>
<stop offset="1" stop-color="#1B8895"/>
</linearGradient>
<linearGradient id="paint82_linear_8_558" x1="58.5" y1="0" x2="58.5" y2="112" gradientUnits="userSpaceOnUse">
<stop stop-color="#3BB3C1"/>
<stop offset="1" stop-color="#1B8895"/>
</linearGradient>
<linearGradient id="paint83_linear_8_558" x1="58.5" y1="0" x2="58.5" y2="112" gradientUnits="userSpaceOnUse">
<stop stop-color="#3BB3C1"/>
<stop offset="1" stop-color="#1B8895"/>
</linearGradient>
<linearGradient id="paint84_linear_8_558" x1="58.5" y1="0" x2="58.5" y2="112" gradientUnits="userSpaceOnUse">
<stop stop-color="#3BB3C1"/>
<stop offset="1" stop-color="#1B8895"/>
</linearGradient>
<linearGradient id="paint85_linear_8_558" x1="58.5" y1="0" x2="58.5" y2="112" gradientUnits="userSpaceOnUse">
<stop stop-color="#3BB3C1"/>
<stop offset="1" stop-color="#1B8895"/>
</linearGradient>
<linearGradient id="paint86_linear_8_558" x1="58.5" y1="0" x2="58.5" y2="112" gradientUnits="userSpaceOnUse">
<stop stop-color="#3BB3C1"/>
<stop offset="1" stop-color="#1B8895"/>
</linearGradient>
<linearGradient id="paint87_linear_8_558" x1="58.5" y1="0" x2="58.5" y2="112" gradientUnits="userSpaceOnUse">
<stop stop-color="#3BB3C1"/>
<stop offset="1" stop-color="#1B8895"/>
</linearGradient>
<linearGradient id="paint88_linear_8_558" x1="58.5" y1="0" x2="58.5" y2="112" gradientUnits="userSpaceOnUse">
<stop stop-color="#3BB3C1"/>
<stop offset="1" stop-color="#1B8895"/>
</linearGradient>
<linearGradient id="paint89_linear_8_558" x1="58.5" y1="0" x2="58.5" y2="112" gradientUnits="userSpaceOnUse">
<stop stop-color="#3BB3C1"/>
<stop offset="1" stop-color="#1B8895"/>
</linearGradient>
<linearGradient id="paint90_linear_8_558" x1="58.5" y1="0" x2="58.5" y2="112" gradientUnits="userSpaceOnUse">
<stop stop-color="#3BB3C1"/>
<stop offset="1" stop-color="#1B8895"/>
</linearGradient>
<linearGradient id="paint91_linear_8_558" x1="58.5" y1="0" x2="58.5" y2="112" gradientUnits="userSpaceOnUse">
<stop stop-color="#3BB3C1"/>
<stop offset="1" stop-color="#1B8895"/>
</linearGradient>
<linearGradient id="paint92_linear_8_558" x1="58.5" y1="0" x2="58.5" y2="112" gradientUnits="userSpaceOnUse">
<stop stop-color="#3BB3C1"/>
<stop offset="1" stop-color="#1B8895"/>
</linearGradient>
<linearGradient id="paint93_linear_8_558" x1="58.5" y1="0" x2="58.5" y2="112" gradientUnits="userSpaceOnUse">
<stop stop-color="#3BB3C1"/>
<stop offset="1" stop-color="#1B8895"/>
</linearGradient>
<linearGradient id="paint94_linear_8_558" x1="58.5" y1="0" x2="58.5" y2="112" gradientUnits="userSpaceOnUse">
<stop stop-color="#3BB3C1"/>
<stop offset="1" stop-color="#1B8895"/>
</linearGradient>
<linearGradient id="paint95_linear_8_558" x1="58.5" y1="0" x2="58.5" y2="112" gradientUnits="userSpaceOnUse">
<stop stop-color="#3BB3C1"/>
<stop offset="1" stop-color="#1B8895"/>
</linearGradient>
<linearGradient id="paint96_linear_8_558" x1="58.5" y1="0" x2="58.5" y2="112" gradientUnits="userSpaceOnUse">
<stop stop-color="#3BB3C1"/>
<stop offset="1" stop-color="#1B8895"/>
</linearGradient>
<linearGradient id="paint97_linear_8_558" x1="58.5" y1="0" x2="58.5" y2="112" gradientUnits="userSpaceOnUse">
<stop stop-color="#3BB3C1"/>
<stop offset="1" stop-color="#1B8895"/>
</linearGradient>
<linearGradient id="paint98_linear_8_558" x1="58.5" y1="0" x2="58.5" y2="112" gradientUnits="userSpaceOnUse">
<stop stop-color="#3BB3C1"/>
<stop offset="1" stop-color="#1B8895"/>
</linearGradient>
<linearGradient id="paint99_linear_8_558" x1="58.5" y1="0" x2="58.5" y2="112" gradientUnits="userSpaceOnUse">
<stop stop-color="#3BB3C1"/>
<stop offset="1" stop-color="#1B8895"/>
</linearGradient>
<linearGradient id="paint100_linear_8_558" x1="58.5" y1="0" x2="58.5" y2="112" gradientUnits="userSpaceOnUse">
<stop stop-color="#3BB3C1"/>
<stop offset="1" stop-color="#1B8895"/>
</linearGradient>
<linearGradient id="paint101_linear_8_558" x1="58.5" y1="0" x2="58.5" y2="112" gradientUnits="userSpaceOnUse">
<stop stop-color="#3BB3C1"/>
<stop offset="1" stop-color="#1B8895"/>
</linearGradient>
<linearGradient id="paint102_linear_8_558" x1="58.5" y1="0" x2="58.5" y2="112" gradientUnits="userSpaceOnUse">
<stop stop-color="#3BB3C1"/>
<stop offset="1" stop-color="#1B8895"/>
</linearGradient>
<linearGradient id="paint103_linear_8_558" x1="58.5" y1="0" x2="58.5" y2="112" gradientUnits="userSpaceOnUse">
<stop stop-color="#3BB3C1"/>
<stop offset="1" stop-color="#1B8895"/>
</linearGradient>
<linearGradient id="paint104_linear_8_558" x1="58.5" y1="0" x2="58.5" y2="112" gradientUnits="userSpaceOnUse">
<stop stop-color="#3BB3C1"/>
<stop offset="1" stop-color="#1B8895"/>
</linearGradient>
<linearGradient id="paint105_linear_8_558" x1="58.5" y1="0" x2="58.5" y2="112" gradientUnits="userSpaceOnUse">
<stop stop-color="#3BB3C1"/>
<stop offset="1" stop-color="#1B8895"/>
</linearGradient>
<linearGradient id="paint106_linear_8_558" x1="58.5" y1="0" x2="58.5" y2="112" gradientUnits="userSpaceOnUse">
<stop stop-color="#3BB3C1"/>
<stop offset="1" stop-color="#1B8895"/>
</linearGradient>
<linearGradient id="paint107_linear_8_558" x1="58.5" y1="0" x2="58.5" y2="112" gradientUnits="userSpaceOnUse">
<stop stop-color="#3BB3C1"/>
<stop offset="1" stop-color="#1B8895"/>
</linearGradient>
<linearGradient id="paint108_linear_8_558" x1="58.5" y1="0" x2="58.5" y2="112" gradientUnits="userSpaceOnUse">
<stop stop-color="#3BB3C1"/>
<stop offset="1" stop-color="#1B8895"/>
</linearGradient>
<linearGradient id="paint109_linear_8_558" x1="58.5" y1="0" x2="58.5" y2="112" gradientUnits="userSpaceOnUse">
<stop stop-color="#3BB3C1"/>
<stop offset="1" stop-color="#1B8895"/>
</linearGradient>
<linearGradient id="paint110_linear_8_558" x1="58.5" y1="0" x2="58.5" y2="112" gradientUnits="userSpaceOnUse">
<stop stop-color="#3BB3C1"/>
<stop offset="1" stop-color="#1B8895"/>
</linearGradient>
<linearGradient id="paint111_linear_8_558" x1="58.5" y1="0" x2="58.5" y2="112" gradientUnits="userSpaceOnUse">
<stop stop-color="#3BB3C1"/>
<stop offset="1" stop-color="#1B8895"/>
</linearGradient>
<linearGradient id="paint112_linear_8_558" x1="58.5" y1="0" x2="58.5" y2="112" gradientUnits="userSpaceOnUse">
<stop stop-color="#3BB3C1"/>
<stop offset="1" stop-color="#1B8895"/>
</linearGradient>
<linearGradient id="paint113_linear_8_558" x1="58.5" y1="0" x2="58.5" y2="112" gradientUnits="userSpaceOnUse">
<stop stop-color="#3BB3C1"/>
<stop offset="1" stop-color="#1B8895"/>
</linearGradient>
<linearGradient id="paint114_linear_8_558" x1="58.5" y1="0" x2="58.5" y2="112" gradientUnits="userSpaceOnUse">
<stop stop-color="#3BB3C1"/>
<stop offset="1" stop-color="#1B8895"/>
</linearGradient>
<linearGradient id="paint115_linear_8_558" x1="58.5" y1="0" x2="58.5" y2="112" gradientUnits="userSpaceOnUse">
<stop stop-color="#3BB3C1"/>
<stop offset="1" stop-color="#1B8895"/>
</linearGradient>
<linearGradient id="paint116_linear_8_558" x1="58.5" y1="0" x2="58.5" y2="112" gradientUnits="userSpaceOnUse">
<stop stop-color="#3BB3C1"/>
<stop offset="1" stop-color="#1B8895"/>
</linearGradient>
<linearGradient id="paint117_linear_8_558" x1="58.5" y1="0" x2="58.5" y2="112" gradientUnits="userSpaceOnUse">
<stop stop-color="#3BB3C1"/>
<stop offset="1" stop-color="#1B8895"/>
</linearGradient>
<linearGradient id="paint118_linear_8_558" x1="58.5" y1="0" x2="58.5" y2="112" gradientUnits="userSpaceOnUse">
<stop stop-color="#3BB3C1"/>
<stop offset="1" stop-color="#1B8895"/>
</linearGradient>
<linearGradient id="paint119_linear_8_558" x1="58.5" y1="0" x2="58.5" y2="112" gradientUnits="userSpaceOnUse">
<stop stop-color="#3BB3C1"/>
<stop offset="1" stop-color="#1B8895"/>
</linearGradient>
<linearGradient id="paint120_linear_8_558" x1="58.5" y1="0" x2="58.5" y2="112" gradientUnits="userSpaceOnUse">
<stop stop-color="#3BB3C1"/>
<stop offset="1" stop-color="#1B8895"/>
</linearGradient>
<linearGradient id="paint121_linear_8_558" x1="58.5" y1="0" x2="58.5" y2="112" gradientUnits="userSpaceOnUse">
<stop stop-color="#3BB3C1"/>
<stop offset="1" stop-color="#1B8895"/>
</linearGradient>
<linearGradient id="paint122_linear_8_558" x1="58.5" y1="0" x2="58.5" y2="112" gradientUnits="userSpaceOnUse">
<stop stop-color="#3BB3C1"/>
<stop offset="1" stop-color="#1B8895"/>
</linearGradient>
<linearGradient id="paint123_linear_8_558" x1="58.5" y1="0" x2="58.5" y2="112" gradientUnits="userSpaceOnUse">
<stop stop-color="#3BB3C1"/>
<stop offset="1" stop-color="#1B8895"/>
</linearGradient>
<linearGradient id="paint124_linear_8_558" x1="58.5" y1="0" x2="58.5" y2="112" gradientUnits="userSpaceOnUse">
<stop stop-color="#3BB3C1"/>
<stop offset="1" stop-color="#1B8895"/>
</linearGradient>
<linearGradient id="paint125_linear_8_558" x1="58.5" y1="0" x2="58.5" y2="112" gradientUnits="userSpaceOnUse">
<stop stop-color="#3BB3C1"/>
<stop offset="1" stop-color="#1B8895"/>
</linearGradient>
<linearGradient id="paint126_linear_8_558" x1="58.5" y1="0" x2="58.5" y2="112" gradientUnits="userSpaceOnUse">
<stop stop-color="#3BB3C1"/>
<stop offset="1" stop-color="#1B8895"/>
</linearGradient>
<linearGradient id="paint127_linear_8_558" x1="58.5" y1="0" x2="58.5" y2="112" gradientUnits="userSpaceOnUse">
<stop stop-color="#3BB3C1"/>
<stop offset="1" stop-color="#1B8895"/>
</linearGradient>
<linearGradient id="paint128_linear_8_558" x1="58.5" y1="0" x2="58.5" y2="112" gradientUnits="userSpaceOnUse">
<stop stop-color="#3BB3C1"/>
<stop offset="1" stop-color="#1B8895"/>
</linearGradient>
<linearGradient id="paint129_linear_8_558" x1="58.5" y1="0" x2="58.5" y2="112" gradientUnits="userSpaceOnUse">
<stop stop-color="#3BB3C1"/>
<stop offset="1" stop-color="#1B8895"/>
</linearGradient>
<linearGradient id="paint130_linear_8_558" x1="58.5" y1="0" x2="58.5" y2="112" gradientUnits="userSpaceOnUse">
<stop stop-color="#3BB3C1"/>
<stop offset="1" stop-color="#1B8895"/>
</linearGradient>
<linearGradient id="paint131_linear_8_558" x1="58.5" y1="0" x2="58.5" y2="112" gradientUnits="userSpaceOnUse">
<stop stop-color="#3BB3C1"/>
<stop offset="1" stop-color="#1B8895"/>
</linearGradient>
</defs>
</svg>
