<svg width="23" height="23" viewBox="0 0 23 23" fill="none" xmlns="http://www.w3.org/2000/svg">
<path d="M21.0698 9.42395C20.7315 9.22727 20.4275 8.97676 20.1698 8.68228C20.1958 8.27229 20.2935 7.87004 20.4583 7.49374C20.7615 6.63853 21.1042 5.66978 20.5542 4.91666C20.0042 4.16353 18.9656 4.18749 18.0542 4.20832C17.6514 4.24976 17.2446 4.22229 16.851 4.12707C16.6414 3.78593 16.4916 3.41143 16.4083 3.01978C16.15 2.13957 15.8552 1.14478 14.95 0.846864C14.0771 0.565614 13.2687 1.18436 12.5542 1.72811C12.2458 2.0097 11.8885 2.23246 11.5 2.38541C11.1074 2.23371 10.7461 2.01088 10.4344 1.72811C9.72187 1.18749 8.91666 0.562489 8.03958 0.847906C7.13645 1.14166 6.84166 2.13957 6.58124 3.01978C6.49805 3.41016 6.3498 3.78377 6.1427 4.12499C5.74845 4.21995 5.34106 4.24811 4.93749 4.20832C4.02291 4.18332 2.9927 4.15624 2.43749 4.91666C1.88228 5.67707 2.22916 6.63853 2.53333 7.4927C2.70045 7.86844 2.79956 8.27086 2.82603 8.68124C2.56883 8.97611 2.26517 9.22698 1.92708 9.42395C1.16458 9.94478 0.29895 10.5375 0.29895 11.5C0.29895 12.4625 1.16458 13.0531 1.92708 13.576C2.2651 13.7727 2.56874 14.0232 2.82603 14.3177C2.80234 14.7279 2.70606 15.1307 2.54166 15.5073C2.23958 16.3614 1.89791 17.3302 2.44687 18.0833C2.99583 18.8364 4.03124 18.8125 4.94687 18.7917C5.34996 18.7502 5.75717 18.7777 6.15103 18.8729C6.35976 19.2144 6.5091 19.5888 6.5927 19.9802C6.85103 20.8604 7.14583 21.8552 8.05103 22.1531C8.19616 22.1997 8.34759 22.2235 8.49999 22.2239C9.2325 22.1188 9.91331 21.7857 10.4458 21.2719C10.7542 20.9903 11.1114 20.7675 11.5 20.6146C11.8926 20.7663 12.2539 20.9891 12.5656 21.2719C13.2792 21.8167 14.0875 22.4385 14.9615 22.1521C15.8646 21.8583 16.1594 20.8604 16.4198 19.9812C16.5033 19.5901 16.6526 19.2161 16.8615 18.875C17.2542 18.7794 17.6603 18.7512 18.0625 18.7917C18.9771 18.8135 20.0073 18.8437 20.5625 18.0833C21.1177 17.3229 20.7708 16.3614 20.4667 15.5062C20.3007 15.1308 20.2016 14.7293 20.174 14.3198C20.4313 14.0246 20.7353 13.7737 21.074 13.5771C21.8365 13.0562 22.7021 12.4625 22.7021 11.5C22.7021 10.5375 21.8333 9.94582 21.0698 9.42395Z" fill="#2C73D2"/>
<path d="M10.4583 14.3646C10.3557 14.3648 10.2541 14.3446 10.1593 14.3053C10.0646 14.2659 9.97854 14.2082 9.90623 14.1354L7.8229 12.0521C7.6849 11.904 7.60977 11.7081 7.61334 11.5057C7.61691 11.3033 7.69891 11.1102 7.84204 10.967C7.98518 10.8239 8.17829 10.7419 8.38069 10.7383C8.58309 10.7348 8.77897 10.8099 8.92707 10.9479L10.5312 12.5521L14.1562 9.83332C14.322 9.709 14.5304 9.65562 14.7355 9.68492C14.9406 9.71422 15.1257 9.82381 15.25 9.98957C15.3743 10.1553 15.4277 10.3637 15.3984 10.5688C15.3691 10.7739 15.2595 10.959 15.0937 11.0833L10.9271 14.2083C10.7918 14.3097 10.6273 14.3645 10.4583 14.3646Z" fill="white"/>
</svg>
