<svg width="60" height="66" viewBox="0 0 60 66" fill="none" xmlns="http://www.w3.org/2000/svg">
<path d="M58.0834 62.2208C58.0834 63.3414 57.1838 64.25 56.0744 64.25C54.9651 64.25 54.0655 63.3414 54.0655 62.2208C54.0655 53.5213 49.4709 45.4824 42.0119 41.1322C34.553 36.7829 25.3638 36.7829 17.9048 41.1322C10.4458 45.4824 5.85123 53.5213 5.85123 62.2208C5.85123 63.3414 4.95169 64.25 3.8423 64.25C2.73291 64.25 1.83337 63.3414 1.83337 62.2208C1.83337 52.071 7.19388 42.6923 15.8959 37.6173C24.5979 32.5434 35.3189 32.5434 44.0209 37.6173C52.7229 42.6923 58.0834 52.071 58.0834 62.2208ZM15.4941 16.3604C15.4941 12.4859 17.0178 8.76902 19.7307 6.02945C22.4427 3.28919 26.1226 1.75 29.9584 1.75C33.7942 1.75 37.4738 3.28912 40.186 6.02945C42.8989 8.76879 44.4227 12.4859 44.4227 16.3604C44.4227 20.2349 42.8989 23.9518 40.186 26.6913C37.4741 29.4316 33.7942 30.9708 29.9584 30.9708C26.1226 30.9708 22.4429 29.4317 19.7307 26.6913C17.0179 23.952 15.4941 20.2349 15.4941 16.3604ZM19.5119 16.3604C19.5119 19.1586 20.6124 21.843 22.5719 23.8214C24.5306 25.8008 27.1879 26.9123 29.9584 26.9123C32.7289 26.9123 35.3862 25.8008 37.3448 23.8214C39.3044 21.8429 40.4048 19.1589 40.4048 16.3604C40.4048 13.5619 39.3044 10.8778 37.3448 8.89935C35.3861 6.91994 32.7289 5.80844 29.9584 5.80844C27.1844 5.79757 24.5207 6.9055 22.5593 8.88659C20.5979 10.8678 19.5012 13.5584 19.5119 16.3604Z" fill="white" stroke="white" stroke-width="2"/>
</svg>
