<svg width="75" height="65" viewBox="0 0 75 65" fill="none" xmlns="http://www.w3.org/2000/svg">
<path d="M65.8994 1.54413L8.99202 4.96162C7.59459 5.02898 6.25255 5.52698 5.14947 6.38741C4.04687 7.24757 3.23698 8.42797 2.83135 9.767C2.38307 11.0954 2.35614 12.5303 2.75493 13.8744C3.15325 15.2187 3.95814 16.4068 5.05829 17.276L24.214 32.769L28.0534 57.1048C28.2561 58.4921 28.8826 59.7833 29.8477 60.8004C30.8123 61.8178 32.0684 62.512 33.443 62.7879C35.1124 63.168 36.8639 62.9093 38.352 62.0625C39.2912 61.519 40.0905 60.7633 40.6849 59.8554L72.0982 12.2809C73.0542 10.8427 73.4384 9.09876 73.1745 7.39189C72.9106 5.68504 72.0177 4.13842 70.6714 3.05646C69.3252 1.97449 67.6228 1.43532 65.8994 1.54413ZM6.58276 15.399C5.60848 14.6405 4.98941 13.5146 4.8708 12.2858C4.75216 11.0568 5.14442 9.83322 5.95538 8.90238C6.76633 7.97156 7.92463 7.41492 9.15821 7.36411L66.0453 3.95829C67.3475 3.83321 68.6368 4.30152 69.556 5.23288L25.4789 30.6808L6.58276 15.399ZM70.0814 10.9489L38.6883 58.5117C38.0169 59.5384 36.9572 60.2475 35.7526 60.4772C34.5477 60.7065 33.3019 60.4368 32.3004 59.7287C31.2986 59.0214 30.628 57.9371 30.4421 56.7247L26.6675 32.7415L70.7029 7.31759C71.0443 8.56102 70.8164 9.89146 70.0812 10.9501L70.0814 10.9489Z" fill="white" stroke="white" stroke-width="3"/>
</svg>
