<svg width="283" height="193" viewBox="0 0 283 193" fill="none" xmlns="http://www.w3.org/2000/svg">
<line x1="9.5" y1="21" x2="9.5" y2="57" stroke="#D0C7C7" stroke-dasharray="6 6"/>
<line x1="10" y1="56.5" x2="164" y2="56.5" stroke="#D0C7C7" stroke-dasharray="6 6"/>
<line x1="163.481" y1="56.8626" x2="199.481" y2="182.863" stroke="#D0C7C7" stroke-dasharray="6 6"/>
<line x1="199" y1="182.5" x2="263" y2="182.5" stroke="#D0C7C7" stroke-dasharray="6 6"/>
<g clip-path="url(#clip0_432_349)">
<path d="M19.6287 4.74605C19.3815 4.49861 19.0885 4.375 18.7498 4.375H1.25009C0.911336 4.375 0.61848 4.49861 0.371047 4.74605C0.123614 4.99375 0 5.28661 0 5.62516C0 5.96365 0.123614 6.2565 0.371047 6.504L9.12095 15.2539C9.36866 15.5013 9.66152 15.6252 10 15.6252C10.3385 15.6252 10.6316 15.5013 10.8788 15.2539L19.6287 6.50394C19.8759 6.2565 20 5.96365 20 5.62509C20 5.28661 19.8759 4.99375 19.6287 4.74605Z" fill="white"/>
</g>
<g clip-path="url(#clip1_432_349)">
<path d="M267.746 173.371C267.498 173.618 267.375 173.912 267.375 174.25L267.375 191.75C267.375 192.089 267.498 192.382 267.746 192.629C267.994 192.876 268.286 193 268.625 193C268.964 193 269.256 192.876 269.504 192.629L278.254 183.879C278.501 183.631 278.625 183.338 278.625 183C278.625 182.662 278.501 182.368 278.254 182.121L269.504 173.371C269.256 173.124 268.964 173 268.625 173C268.286 173 267.994 173.124 267.746 173.371Z" fill="white"/>
</g>
<defs>
<clipPath id="clip0_432_349">
<rect width="20" height="20" fill="white"/>
</clipPath>
<clipPath id="clip1_432_349">
<rect width="20" height="20" fill="white" transform="translate(263 193) rotate(-90)"/>
</clipPath>
</defs>
</svg>
